<?xml version="1.0" standalone="no"?>
<!DOCTYPE svg PUBLIC "-//W3C//DTD SVG 1.1//EN" "http://www.w3.org/Graphics/SVG/1.1/DTD/svg11.dtd" >
<svg xmlns="http://www.w3.org/2000/svg">
<metadata>
This is a custom SVG webfont generated by Font Squirrel.
Copyright   : Frutiger is a Trademark of Heidelberger Druckmaschinen AG which may be registered in certain jurisdictions exclusively licensed through Linotype Library GmbH a wholly owned subsidiary of Heidelberger Druckmaschinen AG
Foundry     : Frutiger is a Trademark of Heidelberger Druckmaschinen AG which may be registered in certain jurisdictions exclusively licensed through Linotype Library GmbH a wholly owned subsidiary of Heidelberger Druckmaschinen AG
</metadata>
<defs>
<font id="FrutigerNextLTRegular" horiz-adv-x="972" >
<font-face units-per-em="2048" ascent="1638" descent="-410" />
<missing-glyph horiz-adv-x="485" />
<glyph unicode=" "  horiz-adv-x="485" />
<glyph unicode="&#x09;" horiz-adv-x="485" />
<glyph unicode="&#xa0;" horiz-adv-x="485" />
<glyph unicode="!" horiz-adv-x="548" d="M174 1366h201l-23 -991h-153zM178 0v223h193v-223h-193z" />
<glyph unicode="&#x22;" horiz-adv-x="794" d="M154 940v426h165v-426h-165zM475 940v426h166v-426h-166z" />
<glyph unicode="#" d="M57 420v127h174l35 272h-166v127h185l51 420h125l-51 -420h217l51 420h125l-51 -420h161v-127h-180l-33 -272h170v-127h-188l-53 -420h-127l53 420h-215l-53 -420h-127l53 420h-156zM358 547h215l35 272h-217z" />
<glyph unicode="$" d="M133 1032q0 84 27.5 144.5t70.5 102.5t97.5 65.5t107.5 33.5v207h109v-199q82 -2 144 -18l104 -27l-13 -178q-47 29 -106.5 49.5t-132.5 20.5q-33 0 -70 -10.5t-68.5 -33t-52 -57t-20.5 -85.5q0 -82 40 -129.5t109 -92.5l119 -75q68 -43 114 -81t75.5 -81t43 -94.5 t13.5 -120.5q0 -154 -87 -255.5t-225 -129.5v-209h-110v198q-68 2 -148.5 17.5t-138.5 46.5l12 182q35 -29 74 -46t75 -26.5t66.5 -13.5t53.5 -4q74 0 119 24.5t70.5 58.5t33.5 71t8 61q0 51 -13 87t-37 64.5t-57 52.5l-75 50l-123 80q-111 72 -160 152.5t-49 197.5z" />
<glyph unicode="%" horiz-adv-x="1597" d="M123 965q0 59 9 131.5t37 137t80 108.5t138 44q88 0 140.5 -43t80 -107.5t35.5 -137t8 -133.5t-9 -135t-36.5 -137.5t-80 -106.5t-138.5 -43t-138 43t-80 106.5t-37 137.5t-9 135zM264 965q0 -51 3 -106.5t15.5 -100.5t37 -74t67.5 -29t67.5 30t37 75t15.5 100t3 105 q0 49 -3 104t-15.5 100t-37 75t-67.5 30t-67.5 -30t-37 -75t-15.5 -99t-3 -105zM449 -49l579 1464h125l-580 -1464h-124zM948 399q0 59 9.5 132t38 137.5t80.5 108.5t138 44q88 0 139.5 -43t79 -107.5t36 -137t8.5 -134.5q0 -61 -9.5 -135t-37 -137.5t-79 -106.5t-137.5 -43 t-139 43t-80.5 106.5t-37 137.5t-9.5 135zM1090 399q0 -51 4 -106t16 -100.5t36.5 -74t67.5 -28.5t68 30t36 75t14 100t3 104t-3 104.5t-14 100.5t-36 75t-68 30t-67.5 -30t-37.5 -75t-16 -99.5t-3 -105.5z" />
<glyph unicode="&#x26;" horiz-adv-x="1099" d="M109 365q0 72 24.5 132t68.5 105t103.5 71.5t128.5 33.5q-141 10 -217 94t-76 225q0 86 33 152.5t88 112.5t128 70.5t155 24.5q76 0 135 -12t131 -37l-12 -170l-63.5 28.5t-58.5 21t-61.5 12.5t-72.5 4q-94 0 -154.5 -62.5t-60.5 -154.5q0 -113 63.5 -174.5t177.5 -61.5 h160v156h174v-156h160v-147h-160v-596q-88 -29 -179 -44.5t-183 -15.5t-171 23t-137.5 71t-91 121t-32.5 173zM293 375q0 -113 69.5 -177.5t182.5 -64.5q49 0 93 6t91 23v471h-160q-59 0 -109 -18.5t-87 -52.5t-58.5 -81t-21.5 -106z" />
<glyph unicode="'" horiz-adv-x="485" d="M160 940v426h166v-426h-166z" />
<glyph unicode="(" horiz-adv-x="524" d="M102 608q0 131 21.5 247t58.5 222.5t88.5 204.5t110.5 195h141q-51 -90 -95 -190.5t-78 -210t-53.5 -226.5t-19.5 -242t19.5 -242.5t53.5 -226t78 -210t95 -191.5h-141q-59 94 -110.5 193.5t-88.5 206t-58.5 223t-21.5 247.5z" />
<glyph unicode=")" horiz-adv-x="524" d="M4 -262q51 90 95 190.5t78 210t53.5 226t19.5 241.5t-19.5 243t-53.5 226.5t-78 209.5t-95 192h141q59 -96 110.5 -194.5t88.5 -205t58.5 -223.5t21.5 -248t-21.5 -246.5t-58.5 -222t-88 -206t-111 -193.5h-141z" />
<glyph unicode="*" horiz-adv-x="765" d="M55 1073l49 148l230 -111l-27 256h158l-25 -256l224 111l49 -148l-240 -67l160 -213l-131 -82l-119 229l-117 -229l-127 82l156 213z" />
<glyph unicode="+" horiz-adv-x="1150" d="M57 434v150h441v434h157v-434h441v-150h-441v-434h-157v434h-441z" />
<glyph unicode="," horiz-adv-x="485" d="M57 -262l109 485h182l-147 -485h-144z" />
<glyph unicode="-" horiz-adv-x="598" d="M88 557v158h424v-158h-424z" />
<glyph unicode="." horiz-adv-x="485" d="M145 0v223h195v-223h-195z" />
<glyph unicode="/" horiz-adv-x="514" d="M14 0l346 1366h142l-346 -1366h-142z" />
<glyph unicode="0" d="M90 682q0 63 6 140t21.5 156t43 151.5t71.5 130t106.5 92t148.5 34.5q88 0 151.5 -33.5t108 -91t71 -130t40.5 -151.5t19.5 -155.5t5.5 -142.5t-5.5 -144.5t-20.5 -156.5t-43 -150.5t-72 -129t-106.5 -90.5t-148.5 -34q-88 0 -151.5 34t-107.5 90.5t-71.5 129t-42 151.5 t-19.5 156.5t-5 143.5zM276 682q0 -82 5.5 -178t26 -179t63.5 -139.5t116 -56.5q76 0 118 56.5t62.5 140.5t25.5 180t5 176q0 78 -5 174t-25.5 180t-62.5 141.5t-118 57.5t-117.5 -56.5t-62 -140.5t-26 -180t-5.5 -176z" />
<glyph unicode="1" d="M182 1098l289 268h166v-1366h-186v1151l-177 -188z" />
<glyph unicode="2" d="M104 0v150l109 135l130 162q71 89 132.5 184.5t102 193t40.5 187.5q0 104 -51 162.5t-153 58.5q-72 0 -132.5 -26.5t-121.5 -63.5l-13 164q47 23 122 51t192 28q90 0 156.5 -29.5t109.5 -80.5t63.5 -116.5t20.5 -137.5q0 -100 -39 -202.5t-94 -195t-114 -166.5l-95 -120 l-158 -184h516v-154h-723z" />
<glyph unicode="3" d="M94 33l12 166q61 -29 124 -47.5t130 -18.5q123 0 198 68.5t75 193.5q0 61 -23.5 106.5t-65.5 75t-96.5 44t-115.5 14.5h-80v149h78q61 0 115.5 13.5t94.5 42t62.5 75t22.5 111.5q0 51 -19.5 90t-53.5 65.5t-78 39t-93 12.5q-66 0 -125 -20.5t-113 -51.5l-12 164 q59 27 139 44t154 17q80 0 150.5 -22.5t124 -67.5t85 -110.5t31.5 -151.5q0 -121 -66.5 -203.5t-189.5 -115.5q117 -16 191.5 -103.5t74.5 -226.5q0 -188 -121.5 -298t-347.5 -110q-29 0 -63.5 3.5t-70.5 10.5t-69.5 17.5t-58.5 24.5z" />
<glyph unicode="4" d="M70 299v178l475 889h221v-917h141v-150h-141v-299h-180v299h-516zM207 449h383v727z" />
<glyph unicode="5" d="M131 37l14 164q57 -31 120 -49.5t122 -18.5q133 0 205 83t72 212q0 135 -74 207t-209 72q-59 0 -112.5 -13.5t-106.5 -34.5l20 707h606v-154h-436l-12 -378q31 10 59.5 16t63.5 6q96 0 170 -30.5t123 -86t74.5 -133.5t25.5 -170q0 -104 -30.5 -188t-89 -144.5 t-142.5 -93.5t-191 -33q-41 0 -74.5 3.5t-65.5 10.5t-63.5 18.5t-68.5 27.5z" />
<glyph unicode="6" d="M96 604q0 80 8.5 168t30 175t57 167t91 140.5t130 96t175.5 35.5q63 0 125.5 -11t124.5 -32l-13 -163q-53 25 -103 39t-110 14q-102 0 -164.5 -53.5t-99.5 -133t-52 -174t-22 -178.5q39 76 107 123t156 47q92 0 159.5 -35.5t111.5 -95t64.5 -137.5t20.5 -160 q0 -94 -26.5 -177t-78 -145.5t-125 -99.5t-167.5 -37q-127 0 -206 60.5t-122 153t-57.5 203t-14.5 210.5zM297 432q0 -47 9 -100t30.5 -98.5t59.5 -75t98 -29.5q57 0 98 29.5t67.5 73.5t38 97.5t11.5 102.5t-11.5 99.5t-36 90.5t-64.5 65.5t-97 25.5q-55 0 -94 -27 t-63 -67.5t-35 -90t-11 -96.5z" />
<glyph unicode="7" d="M115 1212v154h716v-160l-411 -1206h-203l426 1212h-528z" />
<glyph unicode="8" d="M82 356q0 66 21.5 118t57.5 95t83 78t98 68q-106 57 -164.5 138t-58.5 204q0 76 30.5 137t81 104t117 65.5t139.5 22.5q74 0 139.5 -22.5t117 -64.5t81 -103t29.5 -139q0 -59 -18.5 -109.5t-50 -92.5t-73.5 -77t-87 -63q51 -31 99 -65t85 -77t59.5 -96t22.5 -123 q0 -86 -31 -155.5t-85 -118.5t-128 -76t-160 -27q-90 0 -163.5 27t-128 76t-84 119.5t-29.5 156.5zM268 360q0 -96 58.5 -163.5t160.5 -67.5q98 0 158 66.5t60 162.5q0 55 -20.5 98.5t-53.5 78t-75 62.5t-85 52q-37 -25 -73 -53.5t-65.5 -63t-47 -78t-17.5 -94.5zM299 1047 q0 -53 16.5 -93.5t44 -72t64.5 -56t78 -47.5q33 23 63.5 51.5t55 62.5t39 73t14.5 82q0 78 -50.5 133t-136.5 55t-137 -56t-51 -132z" />
<glyph unicode="9" d="M80 940q0 90 26.5 172t78 143.5t125 97.5t167.5 36q125 0 204 -59.5t123 -152t60.5 -203t16.5 -210.5q0 -78 -7.5 -167t-26 -176t-51 -167t-86 -141.5t-128 -97t-174.5 -35.5q-63 0 -131 11t-127 32l12 167q57 -25 107 -41t114 -16q100 0 161.5 54.5t95.5 134t46 174 t14 174.5q-39 -78 -106.5 -124t-155.5 -46q-92 0 -159.5 37.5t-111.5 100t-65.5 141.5t-21.5 161zM266 942q0 -49 11.5 -100t36 -94t64.5 -70t99 -27q55 0 94 27t62.5 67.5t35 90t11.5 96.5t-10.5 101t-33 99.5t-62 75t-97.5 29.5q-61 0 -102 -26.5t-64.5 -69.5t-34 -95.5 t-10.5 -103.5z" />
<glyph unicode=":" horiz-adv-x="485" d="M145 0v223h195v-223h-195zM145 805v223h195v-223h-195z" />
<glyph unicode=";" horiz-adv-x="485" d="M57 -262l109 485h182l-147 -485h-144zM145 805v223h193v-223h-193z" />
<glyph unicode="&#x3c;" horiz-adv-x="1150" d="M53 426v160l1039 415v-159l-861 -336l861 -332v-160z" />
<glyph unicode="=" horiz-adv-x="1150" d="M57 231v148h1039v-148h-1039zM57 635v147h1039v-147h-1039z" />
<glyph unicode="&#x3e;" horiz-adv-x="1153" d="M59 14v160l861 332l-861 336v159l1041 -415v-160z" />
<glyph unicode="?" horiz-adv-x="753" d="M63 1337q45 18 107.5 33.5t134.5 15.5q82 0 151.5 -20t121 -62t79 -105.5t27.5 -149.5q0 -70 -20.5 -124.5t-51 -102.5t-66.5 -91t-66.5 -91t-51 -103.5t-20.5 -126.5v-35h-168v39q0 121 38.5 199.5t86 141t86 124t38.5 145.5q0 92 -55 148.5t-153 56.5q-68 0 -117 -18.5 t-88 -43.5zM227 0v223h193v-223h-193z" />
<glyph unicode="@" horiz-adv-x="1331" d="M102 326q0 131 42 260t121 231.5t192.5 164.5t259.5 62q115 0 209 -47t161.5 -126.5t105.5 -183t38 -216.5q0 -92 -20.5 -177t-64.5 -150.5t-112.5 -104.5t-165.5 -39q-59 0 -101 33t-52 96q-23 -49 -75 -89t-112 -40q-49 0 -81.5 20.5t-54 52t-31 72.5t-9.5 84 q0 84 29 174.5t83 164t130 121.5t172 48q82 0 164 -32l-107 -500q-4 -20 -4 -31q0 -39 16.5 -57.5t57.5 -18.5q53 0 93 34t65.5 88t38 120t12.5 131q0 90 -25.5 173t-77 145.5t-126 100.5t-175.5 38q-115 0 -201.5 -57.5t-146 -145.5t-89.5 -194.5t-30 -204.5 q0 -111 26 -209.5t79 -172t136 -117.5t200 -44q106 0 184 26.5t156 63.5l12 -125l-84 -34q-39 -15 -82 -25.5t-92 -16.5t-115 -6q-131 0 -233.5 52.5t-172 142.5t-106.5 210t-37 255zM469 236q0 -23 4 -46.5t13.5 -43t26.5 -32t44 -12.5q45 0 79 36t57.5 85t37.5 102.5 l23 90.5l45 213q-12 4 -29.5 5t-30.5 1q-61 0 -111 -43t-86 -104.5t-54.5 -130t-18.5 -121.5z" />
<glyph unicode="A" horiz-adv-x="1132" d="M23 0l440 1366h209l440 -1366h-199l-102 354h-494l-104 -354h-190zM354 502h416l-207 696z" />
<glyph unicode="B" horiz-adv-x="1042" d="M166 0v1366h375q80 0 147.5 -22.5t116.5 -66.5t77.5 -108.5t28.5 -146.5q0 -117 -61.5 -199t-165.5 -112q119 -23 188.5 -112t69.5 -220q0 -98 -31.5 -169t-87 -118t-133.5 -69.5t-170 -22.5h-354zM352 152h160q117 0 177.5 57t60.5 178q0 115 -59.5 180.5t-174.5 65.5 h-164v-481zM352 776h150q106 0 162.5 62.5t56.5 167.5q0 104 -58.5 157.5t-160.5 53.5h-150v-441z" />
<glyph unicode="C" horiz-adv-x="1017" d="M102 682q0 150 41 279t118 224t184.5 148t242.5 53q86 0 150.5 -16t109.5 -37l-12 -176q-41 31 -101.5 50.5t-129.5 19.5q-104 0 -181.5 -46t-127.5 -123t-73.5 -175.5t-23.5 -202.5q0 -102 23.5 -199.5t73.5 -173.5t126 -122t180 -46q84 0 137.5 20.5t100.5 43.5 l12 -183q-55 -16 -118.5 -29.5t-147.5 -13.5q-147 0 -257 56.5t-182.5 153t-108.5 224.5t-36 271z" />
<glyph unicode="D" horiz-adv-x="1175" d="M166 0v1366h252q334 0 495.5 -180t161.5 -504q0 -152 -39 -276.5t-115.5 -215t-193.5 -140.5t-272 -50h-289zM356 158h111q117 0 194.5 42t126 114.5t69 168t20.5 199.5q0 111 -21.5 207t-73 167.5t-133.5 112.5t-205 41h-88v-1052z" />
<glyph unicode="E" horiz-adv-x="923" d="M166 0v1366h645v-156h-457v-426h432v-153h-432v-473h480v-158h-668z" />
<glyph unicode="F" horiz-adv-x="868" d="M166 0v1366h629v-156h-439v-430h416v-153h-416v-627h-190z" />
<glyph unicode="G" horiz-adv-x="1165" d="M102 682q0 139 40 266t118 224.5t191.5 155.5t263.5 58q86 0 161.5 -18t141.5 -47l-12 -176q-59 39 -134 61.5t-155 22.5q-111 0 -189.5 -48t-129 -126t-75 -175.5t-24.5 -197.5t22.5 -198.5t71.5 -175.5t128 -125t194 -48q41 0 78.5 8.5t74.5 28.5v424h-213v149h392 v-692q-78 -41 -170.5 -58.5t-178.5 -17.5q-156 0 -268.5 57.5t-185 154t-107.5 224.5t-35 269z" />
<glyph unicode="H" horiz-adv-x="1161" d="M166 0v1366h190v-578h451v578h190v-1366h-190v629h-451v-629h-190z" />
<glyph unicode="I" horiz-adv-x="520" d="M166 0v1366h190v-1366h-190z" />
<glyph unicode="J" horiz-adv-x="602" d="M6 4l12 166q25 -10 46.5 -17.5t46.5 -7.5q55 0 84.5 22.5t45 57.5t18.5 79t3 87v975h191v-975q0 -84 -12.5 -158.5t-47.5 -132t-96 -90.5t-162 -33q-33 0 -64.5 8.5t-64.5 18.5z" />
<glyph unicode="K" horiz-adv-x="1058" d="M166 0v1366h190v-604l430 604h222l-488 -645l531 -721h-236l-459 662v-662h-190z" />
<glyph unicode="L" horiz-adv-x="825" d="M166 0v1366h190v-1206h432v-160h-622z" />
<glyph unicode="M" horiz-adv-x="1536" d="M166 0v1366h285l317 -1110l317 1110h287v-1366h-186v1196l-352 -1196h-148l-350 1196v-1196h-170z" />
<glyph unicode="N" horiz-adv-x="1232" d="M166 0v1366h254l479 -1143v1143h170v-1366h-254l-479 1141v-1141h-170z" />
<glyph unicode="O" horiz-adv-x="1210" d="M102 682q0 121 26 246t84 227t154.5 166.5t237.5 64.5q152 0 250 -64.5t154.5 -165.5t79 -226t22.5 -248t-24.5 -248t-84 -226.5t-156.5 -166t-241 -64.5q-150 0 -247 63.5t-153.5 165t-79 227.5t-22.5 249zM299 682q0 -90 11.5 -187.5t43 -178t92 -133t158.5 -52.5 q100 0 161.5 55.5t93.5 138.5t42 179t10 178q0 84 -9 181.5t-41 179t-92 136t-165 54.5q-98 0 -158.5 -55.5t-93.5 -138.5t-43 -179t-10 -178z" />
<glyph unicode="P" horiz-adv-x="978" d="M166 0v1366h319q98 0 178 -24.5t137.5 -73.5t89.5 -125t32 -178q0 -193 -112 -298.5t-300 -105.5h-156v-561h-188zM352 715h119q129 0 192.5 60.5t63.5 189.5q0 135 -73.5 191t-204.5 56h-97v-497z" />
<glyph unicode="Q" horiz-adv-x="1210" d="M102 682q0 121 26 246t84 227t154.5 166.5t237.5 64.5q152 0 250 -64.5t154.5 -165.5t79 -226t22.5 -248q0 -94 -14.5 -191.5t-46 -184.5t-86 -158.5t-134.5 -114.5l258 -295h-221l-202 244q-14 -4 -29 -5h-31q-150 0 -247 63.5t-153.5 165t-79 227.5t-22.5 249zM299 682 q0 -90 11.5 -187.5t43 -178t92 -133t158.5 -52.5q100 0 161.5 55.5t93.5 138.5t42 179t10 178q0 84 -9 181.5t-41 179t-92 136t-165 54.5q-98 0 -158.5 -55.5t-93.5 -138.5t-43 -179t-10 -178z" />
<glyph unicode="R" horiz-adv-x="1046" d="M166 0v1366h379q82 0 150.5 -23.5t119.5 -68.5t80 -110.5t29 -149.5q0 -133 -69 -220t-200 -112q63 -12 96 -48t58 -106l188 -528h-202l-150 446q-25 74 -57.5 117t-104.5 43h-129v-606h-188zM352 760h144q117 0 175 60.5t58 172.5q0 115 -64.5 167t-175.5 52h-137v-452z " />
<glyph unicode="S" horiz-adv-x="899" d="M98 1032q0 109 44 177.5t106.5 108.5t131.5 54t118 14q86 0 152 -17l108 -28l-13 -178q-47 29 -106 49.5t-133 20.5q-33 0 -70 -10.5t-68.5 -33t-52 -57t-20.5 -85.5q0 -82 40 -129.5t109 -92.5l119 -75q68 -43 114 -81t75.5 -81t43 -94.5t13.5 -120.5q0 -88 -30.5 -161 t-85 -125t-128 -81t-159.5 -29q-35 0 -76 4.5t-82 11.5t-79 19.5t-69 28.5l13 182q35 -29 73.5 -46t74.5 -26.5t66.5 -13.5t53.5 -4q74 0 119 24.5t70.5 59.5t33.5 72t8 61q0 51 -13 87t-36.5 63.5t-57.5 51.5l-75 50l-123 80q-111 72 -160 152.5t-49 197.5z" />
<glyph unicode="T" horiz-adv-x="845" d="M27 1206v160h794v-160h-303v-1206h-190v1206h-301z" />
<glyph unicode="U" horiz-adv-x="1155" d="M150 496v870h190v-889q0 -63 7 -124.5t31.5 -110.5t72 -79t127.5 -30q76 0 123 30t73.5 79t34.5 110.5t8 124.5v889h191v-870q0 -106 -22.5 -200.5t-74 -165.5t-133.5 -112t-200 -41q-123 0 -205 40t-132.5 109t-70.5 164t-20 206z" />
<glyph unicode="V" horiz-adv-x="1030" d="M18 1366h205l299 -1151l297 1151h193l-389 -1366h-211z" />
<glyph unicode="W" horiz-adv-x="1572" d="M31 1366h194l224 -1151l237 1151h217l236 -1151l223 1151h182l-299 -1366h-221l-233 1171l-238 -1171h-221z" />
<glyph unicode="X" horiz-adv-x="1042" d="M23 0l385 725l-351 641h217l254 -504l252 504h205l-350 -641l387 -725h-215l-291 588l-289 -588h-204z" />
<glyph unicode="Y" horiz-adv-x="911" d="M0 1366h213l250 -625l246 625h202l-360 -797v-569h-191v569z" />
<glyph unicode="Z" horiz-adv-x="897" d="M63 0v166l560 1044h-541v156h743v-160l-559 -1048h570v-158h-773z" />
<glyph unicode="[" horiz-adv-x="524" d="M152 -262v1739h315v-138h-162v-1464h162v-137h-315z" />
<glyph unicode="\" horiz-adv-x="514" d="M14 1366h142l346 -1366h-142z" />
<glyph unicode="]" horiz-adv-x="524" d="M59 -125h162v1464h-162v138h316v-1739h-316v137z" />
<glyph unicode="^" horiz-adv-x="1150" d="M152 504l350 862h149l350 -862h-167l-261 678l-254 -678h-167z" />
<glyph unicode="_" horiz-adv-x="1024" d="M0 -154h1024v-102h-1024v102z" />
<glyph unicode="`" horiz-adv-x="454" d="M2 1475h162l153 -279h-127z" />
<glyph unicode="a" horiz-adv-x="937" d="M68 270q0 102 46 170t117.5 108t158.5 56.5t171 16.5h68v61q0 100 -44 162.5t-159 62.5q-66 0 -137.5 -28.5t-128.5 -71.5l-13 158q72 35 141.5 57t162.5 22q188 0 269 -93t81 -253v-475q0 -63 3 -116.5t7 -106.5h-170l-8 143q-53 -82 -115.5 -124t-161.5 -42 q-63 0 -116.5 23t-91 61.5t-59 93t-21.5 115.5zM246 279q0 -74 45 -119t121 -45q57 0 98 24.5t67.5 64.5t39 90t12.5 101v109h-33q-61 0 -122.5 -7.5t-113 -32t-83 -68t-31.5 -117.5z" />
<glyph unicode="b" horiz-adv-x="995" d="M139 0v1477h176v-596q39 72 100.5 117.5t155.5 45.5q104 0 171 -51t105 -130t52 -172t14 -175q0 -80 -16 -174t-55 -175t-106.5 -135.5t-168.5 -54.5q-92 0 -155.5 45.5t-102.5 120.5l-4 -143h-166zM311 516q0 -57 6.5 -125.5t29 -129t63.5 -100.5t112 -40q66 0 106 44 t61.5 105.5t28.5 129t7 116.5t-6 115.5t-27.5 127t-61.5 101.5t-108 41t-108.5 -39t-63 -97t-31 -126t-8.5 -123z" />
<glyph unicode="c" horiz-adv-x="790" d="M82 516q0 113 30.5 210t88 168t139.5 110.5t182 39.5q102 0 203 -40l-12 -156q-37 25 -82 36t-90 11q-74 0 -126.5 -35t-84 -90t-46 -122.5t-14.5 -131.5q0 -68 14.5 -137.5t47.5 -125.5t87 -91t134 -35q41 0 86 15.5t80 37.5l12 -162q-53 -18 -106.5 -29.5t-108.5 -11.5 q-115 0 -197.5 45.5t-135 121t-77 172t-24.5 200.5z" />
<glyph unicode="d" horiz-adv-x="995" d="M82 516q0 82 15.5 175t54 172t105.5 130t171 51q94 0 152.5 -46t99.5 -117v596h178v-1194q0 -78 1 -141.5t5 -141.5h-168l-6 150q-37 -72 -101.5 -122.5t-160.5 -50.5q-102 0 -168.5 53.5t-106.5 134.5t-55.5 175t-15.5 176zM270 516q0 -49 7.5 -116.5t29 -129 t61.5 -105.5t105 -44q70 0 112 40t63.5 100.5t28.5 129t7 125.5q0 55 -8 123t-30.5 126t-63.5 97t-109 39t-107.5 -41t-61 -101.5t-28 -127t-6.5 -115.5z" />
<glyph unicode="e" horiz-adv-x="890" d="M82 516q0 94 21.5 188.5t66.5 170t116.5 122.5t174.5 47q104 0 172.5 -47t108.5 -121.5t56.5 -166t16.5 -177.5v-65h-553q0 -63 12.5 -125.5t43 -113t81 -82t127.5 -31.5q61 0 126 21.5t116 56.5l12 -158q-59 -29 -132 -43.5t-138 -14.5q-121 0 -202 44.5t-132 118 t-72.5 170.5t-21.5 206zM262 586h381q0 47 -7 103t-27.5 105.5t-56.5 83t-91 33.5t-93 -32.5t-61.5 -80.5t-34 -105.5t-10.5 -106.5z" />
<glyph unicode="f" horiz-adv-x="575" d="M35 883v141h160v178q0 160 67.5 227.5t196.5 67.5q43 0 72.5 -7t52.5 -11l-13 -140q-31 14 -75 15q-66 0 -95.5 -40t-29.5 -114v-176h180v-141h-180v-883h-176v883h-160z" />
<glyph unicode="g" horiz-adv-x="995" d="M82 516q0 84 15.5 177t55.5 171t105.5 129t167.5 51q98 0 159.5 -46t100.5 -117v143h172v-975q0 -109 -21.5 -202t-70.5 -161.5t-129 -108.5t-197 -40q-82 0 -157.5 16.5t-153.5 40.5l12 166q66 -37 137.5 -58t147.5 -21q92 0 143.5 38.5t76 100t29.5 135.5t5 141v62 q-37 -68 -98.5 -113t-153.5 -45q-102 0 -168.5 48t-105.5 123t-55.5 167t-16.5 178zM270 516q0 -51 6.5 -115.5t27 -122t60 -96.5t107.5 -39q72 0 115 38t64.5 94.5t27.5 121t6 119.5t-8 123t-30.5 126t-63.5 97t-109 39t-107.5 -41t-61 -101.5t-28 -127t-6.5 -115.5z" />
<glyph unicode="h" horiz-adv-x="983" d="M139 0v1477h176v-603q31 72 98.5 121t151.5 49q78 0 131.5 -27.5t87 -73.5t48 -107.5t14.5 -130.5v-705h-176v694q0 41 -8.5 78t-28 65.5t-50 45t-73.5 16.5q-49 0 -86 -25.5t-60.5 -64.5t-36 -85t-12.5 -87v-637h-176z" />
<glyph unicode="i" horiz-adv-x="452" d="M137 1233v197h180v-197h-180zM139 0v1024h176v-1024h-176z" />
<glyph unicode="j" horiz-adv-x="458" d="M-20 -444l12 139l24 -7q10 -3 21 -3q47 0 77.5 26.5t30.5 112.5v1200h177v-1188q0 -55 -9.5 -108.5t-34 -96.5t-69.5 -68.5t-117 -25.5q-35 0 -63.5 4.5t-48.5 14.5zM143 1235v197h181v-197h-181z" />
<glyph unicode="k" horiz-adv-x="878" d="M139 0v1477h176v-873l316 420h203l-361 -455l393 -569h-204l-347 526v-526h-176z" />
<glyph unicode="l" horiz-adv-x="452" d="M139 0v1477h176v-1477h-176z" />
<glyph unicode="m" horiz-adv-x="1447" d="M131 1024h164l6 -150q35 74 98.5 122t149.5 48q92 0 151.5 -44t90.5 -126q47 78 108.5 124t144.5 46q72 0 123.5 -24.5t83 -68.5t46 -105.5t14.5 -136.5v-709h-176v690q0 37 -5.5 75t-20.5 67.5t-44 48t-76 18.5q-43 0 -75.5 -24.5t-56 -61.5t-35 -81t-11.5 -83v-649 h-174v690q0 37 -5 75t-20.5 67.5t-44 48t-75.5 18.5q-43 0 -76 -24.5t-55.5 -61.5t-34 -81t-11.5 -83v-649h-176v741q0 70 -3 141.5t-5 141.5z" />
<glyph unicode="n" horiz-adv-x="985" d="M131 1024h164l4 -150q35 72 103.5 121t162.5 49q78 0 132.5 -28.5t88 -75.5t48 -110.5t14.5 -133.5v-696h-176v690q0 41 -8.5 79t-28 66.5t-50 46t-75.5 17.5q-49 0 -86 -23.5t-61.5 -60.5t-36 -82t-11.5 -86v-647h-176v741q0 72 -3 141.5t-5 141.5z" />
<glyph unicode="o" horiz-adv-x="974" d="M82 516q0 94 23.5 188.5t72.5 170t126 122.5t183 47q115 0 193 -46t125 -119.5t67.5 -169t20.5 -193.5q0 -96 -21.5 -191.5t-69.5 -173t-126 -126t-189 -48.5q-113 0 -189.5 47.5t-124.5 124t-69.5 173t-21.5 194.5zM270 516q0 -53 7.5 -121.5t31 -129t65.5 -102.5 t113 -42q70 0 113 42t65.5 102.5t31 129t8.5 121.5q0 55 -7.5 122t-30 125t-65.5 98t-115 40q-68 0 -110.5 -41t-66 -100.5t-32 -126t-8.5 -117.5z" />
<glyph unicode="p" horiz-adv-x="995" d="M131 1024h170l4 -152q39 72 102.5 122t157.5 50q104 0 172 -51t107 -129t54 -171t15 -177q0 -80 -16 -174t-55 -175t-106.5 -135.5t-168.5 -54.5q-94 0 -153.5 44.5t-98.5 117.5v-581h-176v1183q0 78 -2 141.5t-6 141.5zM311 516q0 -59 6.5 -128t29 -128t63.5 -99 t112 -40q66 0 106 43t61.5 105.5t28.5 130t7 116.5t-6 115.5t-26.5 127t-60.5 101.5t-108 41t-108.5 -38t-64 -95t-32 -125t-8.5 -127z" />
<glyph unicode="q" horiz-adv-x="995" d="M82 516q0 84 15.5 177t55.5 171t107.5 129t171.5 51q92 0 153.5 -46t102.5 -117v143h170v-1466h-178v581q-39 -72 -99.5 -117t-152.5 -45q-102 0 -168.5 53.5t-106.5 134.5t-55.5 175t-15.5 176zM270 516q0 -49 7.5 -116.5t29 -129t61.5 -105.5t105 -44q70 0 112 40 t63.5 100.5t28.5 129t7 125.5q0 55 -8 123t-30.5 126t-63.5 97t-109 39t-107.5 -41t-61 -101.5t-28 -127t-6.5 -115.5z" />
<glyph unicode="r" horiz-adv-x="620" d="M131 1024h164l4 -162q35 78 98.5 130t151.5 52q10 0 21.5 -2t21.5 -4l-12 -170l-25 4q-12 2 -27 2q-57 0 -98 -28.5t-66.5 -72.5t-37 -97t-11.5 -103v-573h-176v741q0 72 -3 141.5t-5 141.5z" />
<glyph unicode="s" horiz-adv-x="751" d="M72 27l16 166q59 -33 122.5 -52.5t129.5 -19.5q29 0 58.5 10t53 28.5t38 45t14.5 59.5q0 53 -32 88t-78 63.5t-101 55.5t-101.5 64.5t-78 90t-31.5 132.5q0 72 29.5 125t77 89t106.5 54t121 18q53 0 108.5 -10t108.5 -26l-12 -154q-51 20 -97.5 33.5t-99.5 13.5 q-29 0 -57.5 -9t-51 -25.5t-37 -42t-14.5 -56.5q0 -55 32 -90t78 -62.5t101 -53t101.5 -61.5t78 -88.5t31.5 -129.5q0 -72 -24.5 -128.5t-68.5 -96.5t-103.5 -60.5t-129.5 -20.5q-151 1 -288 50z" />
<glyph unicode="t" horiz-adv-x="606" d="M37 883v141h149v225l174 58v-283h199v-141h-199v-617q0 -31 2.5 -56.5t12.5 -44t30.5 -29.5t57.5 -11q25 0 47 8t45 21l12 -148q-39 -14 -82 -21.5t-82 -7.5q-119 0 -169 68t-50 178v660h-147z" />
<glyph unicode="u" horiz-adv-x="976" d="M135 328v696h176v-690q0 -41 8.5 -79t27 -66.5t49 -46t75.5 -17.5q49 0 86 23.5t60.5 60.5t35 82t11.5 86v647h176v-741q0 -72 3 -141.5t5 -141.5h-164l-4 147q-35 -72 -102.5 -121t-161.5 -49q-78 0 -132.5 29t-87 77t-47 111.5t-14.5 133.5z" />
<glyph unicode="v" horiz-adv-x="835" d="M18 1024h193l215 -850l215 850h178l-291 -1024h-213z" />
<glyph unicode="w" horiz-adv-x="1353" d="M23 1024h188l182 -850l189 850h204l189 -850l184 850h174l-262 -1024h-205l-186 838l-191 -838h-204z" />
<glyph unicode="x" horiz-adv-x="847" d="M20 0l297 535l-272 489h205l182 -367l176 367h195l-275 -494l301 -530h-206l-201 414l-205 -414h-197z" />
<glyph unicode="y" horiz-adv-x="821" d="M23 1024h194l213 -801l195 801h180l-336 -1188q-18 -66 -39.5 -121t-54.5 -95t-78 -61.5t-109 -21.5q-55 0 -112 21l12 149q16 -10 41 -16t49 -6q43 0 72 41t43 90l47 174z" />
<glyph unicode="z" horiz-adv-x="749" d="M57 0v154l447 729h-432v141h616v-154l-446 -729h452v-141h-637z" />
<glyph unicode="{" horiz-adv-x="550" d="M57 551v117q31 0 55.5 9t42 34.5t26.5 69.5t9 114v344q0 127 63.5 182.5t166.5 55.5h106v-113h-67q-63 0 -89 -30.5t-26 -106.5v-383q0 -61 -14.5 -104.5t-37 -70t-50 -41t-56.5 -20.5q29 -6 56.5 -19.5t50 -40t37 -69.5t14.5 -108v-381q0 -76 25.5 -106.5t89.5 -30.5h67 v-115h-106q-104 0 -167 54t-63 183v349q0 70 -9 113.5t-26.5 69t-42 35t-55.5 9.5z" />
<glyph unicode="|" horiz-adv-x="423" d="M139 -442v2031h148v-2031h-148z" />
<glyph unicode="}" horiz-adv-x="552" d="M27 -147h67q63 0 90 30.5t27 106.5v381q0 66 14.5 108.5t37 69t51 40t57.5 19.5q-29 6 -57.5 20.5t-51 41t-37 69.5t-14.5 105v383q0 76 -26.5 106.5t-90.5 30.5h-67v113h108q104 0 165.5 -54.5t61.5 -183.5v-344q0 -70 10.5 -114t29 -69.5t43 -34.5t55.5 -9v-117 q-31 0 -55.5 -9.5t-43 -34t-29 -69.5t-10.5 -114v-349q0 -129 -60 -183t-167 -54h-108v115z" />
<glyph unicode="~" horiz-adv-x="1150" d="M31 352q6 55 23.5 109.5t50 98.5t78.5 70.5t112 26.5q68 0 142.5 -23.5t148 -51t143.5 -50t131 -22.5q70 0 107 47t49 109h104q-4 -55 -21.5 -109.5t-49 -97.5t-77.5 -70t-110 -27q-72 0 -145.5 23t-146 50.5t-143.5 50t-132 22.5q-68 0 -106.5 -47t-49.5 -109h-108z" />
<glyph unicode="&#xa1;" horiz-adv-x="548" d="M174 -342l25 993h153l23 -993h-201zM178 801v223h193v-223h-193z" />
<glyph unicode="&#xa2;" d="M166 688q0 94 23.5 177t66.5 147.5t105.5 106.5t140.5 57v190h98v-184q45 -2 87 -12.5t83 -26.5l-12 -152q-37 23 -79 34t-83 11q-70 0 -117 -31.5t-76.5 -82t-43 -112.5t-13.5 -122q0 -63 12.5 -126.5t42 -115t79.5 -84t126 -32.5q39 0 81 14t77 37l12 -154 q-47 -16 -88 -26.5t-88 -14.5v-186h-98v190q-90 14 -153.5 60.5t-103.5 115t-59.5 151.5t-19.5 171z" />
<glyph unicode="&#xa3;" d="M111 0v145h147v517h-137v141h137v166q0 92 27.5 168.5t80 132t127 86t166.5 30.5q57 0 116 -11t112 -40l-13 -155q-41 27 -93 41t-101 14t-93 -18.5t-77 -54.5t-52.5 -88t-19.5 -118v-153h303v-141h-303v-517h436v-145h-763z" />
<glyph unicode="&#xa4;" d="M51 1071l86 96l119 -133q102 84 231 84q68 0 122.5 -20.5t109.5 -61.5l117 129l88 -96l-119 -131q35 -59 55.5 -121.5t20.5 -136.5q0 -141 -76 -254l119 -133l-86 -96l-121 133q-102 -86 -230 -86q-63 0 -121.5 21.5t-109.5 62.5l-117 -131l-86 98l117 131 q-37 59 -57.5 119.5t-20.5 136.5q0 72 19.5 134.5t58.5 121.5zM240 682q0 -59 19.5 -112.5t53 -93.5t78.5 -63.5t96 -23.5t96.5 22.5t79 62.5t53 93.5t19.5 114.5q0 59 -19.5 112.5t-53 93.5t-78.5 62.5t-97 22.5q-51 0 -96 -22.5t-78.5 -62.5t-53 -92.5t-19.5 -113.5z" />
<glyph unicode="&#xa5;" d="M59 1366h183l250 -616l243 616h180l-292 -670h211v-133h-263v-145h263v-133h-263v-285h-172v285h-258v133h258v145h-258v133h209z" />
<glyph unicode="&#xa6;" horiz-adv-x="423" d="M139 371h148v-813h-148v813zM139 776v811h148v-811h-148z" />
<glyph unicode="&#xa7;" d="M147 592q0 45 14.5 87t39 75.5t55.5 60.5t61 45q-72 47 -101.5 105.5t-29.5 140.5q0 57 26 108.5t72 90t108.5 60t135.5 21.5q68 0 138.5 -16t111.5 -37l-12 -145l-110.5 38.5t-112.5 18.5q-31 0 -61.5 -9t-56.5 -26.5t-41 -44t-15 -63.5q0 -55 36.5 -97t94.5 -81 l147 -101q78 -53 127 -115.5t49 -156.5q0 -92 -45 -154.5t-102 -111.5q53 -43 86 -99.5t33 -134.5q0 -66 -27 -121t-75 -96t-115.5 -64.5t-149.5 -23.5q-72 0 -137.5 21.5t-130.5 50.5l12 153q49 -31 117.5 -57.5t128.5 -26.5q39 0 74.5 11.5t62.5 33t43 52t16 69.5 q0 57 -31.5 98.5t-84.5 73.5l-176 107q-70 41 -122.5 104.5t-52.5 155.5zM311 625q0 -47 25.5 -90t66.5 -70l168 -107q37 41 61.5 82t24.5 99q0 45 -32.5 90t-81.5 80l-129 94q-18 -12 -37 -32.5t-33 -45.5t-23.5 -50t-9.5 -50z" />
<glyph unicode="&#xa8;" horiz-adv-x="452" d="M4 1233v197h143v-197h-143zM307 1233v197h144v-197h-144z" />
<glyph unicode="&#xa9;" horiz-adv-x="1611" d="M102 684q0 145 55.5 273t150.5 223.5t224.5 150.5t274.5 55t274 -55t224.5 -150.5t150.5 -223.5t55 -273t-55 -274t-150.5 -225.5t-224.5 -152t-274 -55.5t-274.5 55.5t-224.5 152t-150.5 225.5t-55.5 274zM238 684q0 -119 44 -225.5t120.5 -186t181 -127t223.5 -47.5 t223.5 47.5t180 127t119.5 186t44 225.5t-44 224.5t-120.5 185.5t-180 126t-222.5 46t-223.5 -46t-181 -126t-120.5 -185.5t-44 -224.5zM434 684q0 90 33 163t92 125t139 79.5t176 27.5q47 0 99.5 -8t97.5 -24l-8 -119q-39 16 -84 26.5t-88 10.5q-145 0 -226 -77t-81 -204 t79.5 -202.5t227.5 -75.5q47 0 88 10t84 28l8 -118q-45 -18 -96 -27.5t-101 -9.5q-100 0 -181 26.5t-138 77.5t-89 125t-32 166z" />
<glyph unicode="&#xaa;" horiz-adv-x="655" d="M57 926q0 63 31 105t78 66.5t105.5 35t111.5 10.5h47v24q0 49 -28.5 80t-100.5 31q-41 0 -89 -15.5t-87 -41.5l-8 120q47 20 95 32.5t110 12.5q129 0 186 -57t57 -155v-281q0 -41 2 -71.5t6 -61.5h-137l-4 84q-33 -49 -75 -74t-105 -25q-49 0 -86 15.5t-61.5 41t-36 57.5 t-11.5 67zM199 934q0 -25 10 -41t24.5 -25.5t32 -12.5t29.5 -3q70 0 102.5 48t32.5 108v41h-22q-41 0 -79 -6.5t-67 -19.5t-46 -34.5t-17 -54.5z" />
<glyph unicode="&#xab;" horiz-adv-x="825" d="M66 524l223 412h153l-209 -412l209 -411h-153zM377 524l223 412h154l-209 -412l209 -411h-154z" />
<glyph unicode="&#xac;" horiz-adv-x="1150" d="M53 635v147h1039v-551h-154v404h-885z" />
<glyph unicode="&#xad;" horiz-adv-x="598" d="M88 557v158h424v-158h-424z" />
<glyph unicode="&#xae;" horiz-adv-x="1611" d="M102 684q0 145 55.5 273t150.5 223.5t224.5 150.5t274.5 55t274 -55t224.5 -150.5t150.5 -223.5t55 -273t-55 -274t-150.5 -225.5t-224.5 -152t-274 -55.5t-274.5 55.5t-224.5 152t-150.5 225.5t-55.5 274zM238 684q0 -119 44 -225.5t120.5 -186t181 -127t223.5 -47.5 t222.5 47.5t180 127t120.5 186t44 225.5t-44 224.5t-120.5 185.5t-180 126t-222.5 46t-223.5 -46t-181 -126t-120.5 -185.5t-44 -224.5zM526 313v770h291q53 0 102.5 -11t86 -35.5t59 -63.5t22.5 -94q0 -78 -57 -127.5t-135 -61.5q51 -10 80 -36.5t47 -69.5l117 -271h-154 l-96 230q-23 55 -52.5 77.5t-99.5 22.5h-67v-330h-144zM668 748h86q33 0 66.5 5t60 19t43 38t16.5 60q0 35 -16.5 55.5t-43 32t-60.5 15.5t-68 4h-84v-229z" />
<glyph unicode="&#xaf;" horiz-adv-x="452" d="M-25 1276v119h504v-119h-504z" />
<glyph unicode="&#xb0;" horiz-adv-x="819" d="M119 1096q0 59 22.5 112.5t62.5 93t92 62t114 22.5q61 0 113 -22.5t92 -62t62.5 -93t22.5 -112.5t-22.5 -112.5t-62.5 -93.5t-92 -63.5t-113 -23.5t-113.5 23.5t-92.5 63.5t-62.5 93.5t-22.5 112.5zM227 1096q0 -76 52.5 -129.5t130.5 -53.5q76 0 130 52.5t54 130.5 q0 76 -53.5 129t-130.5 53q-76 0 -129.5 -53t-53.5 -129z" />
<glyph unicode="&#xb1;" horiz-adv-x="1150" d="M57 -35v148h1039v-148h-1039zM57 551v147h443v353h155v-353h441v-147h-441v-348h-155v348h-443z" />
<glyph unicode="&#xb2;" horiz-adv-x="737" d="M131 553v111l76 77q41 41 86 92.5t82 105.5t61.5 109.5t24.5 104.5q0 121 -129 121q-45 0 -86 -11.5t-82 -33.5l-8 110q33 14 84 30.5t133 16.5q117 0 175 -64.5t58 -156.5q0 -61 -25.5 -121.5t-61.5 -115t-74 -95.5l-60 -67l-98 -102h327v-111h-483z" />
<glyph unicode="&#xb3;" horiz-adv-x="737" d="M115 575l8 119q43 -16 84 -26.5t86 -10.5q78 0 124 37t46 105t-54.5 98.5t-136.5 30.5h-49v108h47q78 0 133.5 28t55.5 99q0 57 -47 84t-107 27q-47 0 -85 -11.5t-73 -27.5l-8 115q43 16 96.5 26t106.5 10q51 0 99 -13t83 -39.5t56.5 -66.5t21.5 -93q0 -70 -45 -119 t-127 -70q72 -10 125 -59t53 -138q0 -111 -78.5 -178t-236.5 -67q-35 0 -90 8t-88 24z" />
<glyph unicode="&#xb4;" horiz-adv-x="452" d="M117 1196l153 279h162l-190 -279h-125z" />
<glyph unicode="&#xb5;" d="M131 -442v1466h176v-690q0 -41 8.5 -79t26.5 -66.5t49 -46t76 -17.5q49 0 86 24.5t60.5 61.5t34.5 81t11 85v647h179v-739q0 -143 6 -285h-162l-6 156q-14 -31 -36 -63t-51.5 -57.5t-65.5 -42t-79 -16.5q-41 0 -78.5 15.5t-66.5 46.5v-481h-168z" />
<glyph unicode="&#x3bc;" d="M131 -442v1466h176v-690q0 -41 8.5 -79t26.5 -66.5t49 -46t76 -17.5q49 0 86 24.5t60.5 61.5t34.5 81t11 85v647h179v-739q0 -143 6 -285h-162l-6 156q-14 -31 -36 -63t-51.5 -57.5t-65.5 -42t-79 -16.5q-41 0 -78.5 15.5t-66.5 46.5v-481h-168z" />
<glyph unicode="&#xb6;" horiz-adv-x="1150" d="M123 1014q0 96 32.5 162.5t90 108.5t137.5 60.5t174 18.5h404v-1585h-136v1474h-192v-1474h-133v880q-76 0 -144.5 25t-120 71t-82 110.5t-30.5 148.5z" />
<glyph unicode="&#xb7;" horiz-adv-x="485" d="M145 524v224h195v-224h-195z" />
<glyph unicode="&#xb8;" horiz-adv-x="452" d="M31 -352l26 69q27 -10 60 -20t76 -10q45 0 74.5 19.5t29.5 57.5q0 33 -23.5 50.5t-54.5 17.5q-29 0 -45 -4t-33 -12l-26 43l104 141h84l-84 -111q12 4 27.5 7.5t40.5 3.5q57 0 97 -36t40 -95q0 -72 -59.5 -114t-149.5 -42q-51 0 -103 9.5t-81 25.5z" />
<glyph unicode="&#xb9;" horiz-adv-x="737" d="M131 1198l203 168h121v-821h-142v672l-114 -113z" />
<glyph unicode="&#xba;" horiz-adv-x="655" d="M53 1069q0 57 16.5 114.5t50.5 102.5t86 72.5t124 27.5q74 0 126 -26.5t84.5 -71.5t48 -101.5t15.5 -117.5q0 -59 -15.5 -116.5t-48 -103.5t-85 -75t-125.5 -29q-74 0 -127 28t-86 73t-48.5 103.5t-15.5 119.5zM201 1069q0 -29 4 -65.5t18.5 -69.5t40 -55.5t66.5 -22.5 t66.5 22.5t39 56.5t17.5 69.5t4 64.5t-4 64.5t-16.5 67.5t-38 53.5t-68.5 21.5q-41 0 -66.5 -21.5t-39 -54.5t-18.5 -68.5t-5 -62.5z" />
<glyph unicode="&#xbb;" horiz-adv-x="825" d="M72 113l209 411l-209 412h153l224 -412l-224 -411h-153zM383 113l209 411l-209 412h154l223 -412l-223 -411h-154z" />
<glyph unicode="&#xbc;" horiz-adv-x="1597" d="M180 1198l203 168h121v-821h-142v672l-114 -113zM410 -49l577 1464h125l-577 -1464h-125zM823 176v129l305 516h164v-536h90v-109h-90v-176h-137v176h-332zM924 285h237v405z" />
<glyph unicode="&#xbd;" horiz-adv-x="1597" d="M139 1198l203 168h121v-821h-141v672l-115 -113zM369 -49l577 1464h125l-577 -1464h-125zM901 0v111l76 77q41 41 86 92.5t82 105.5t61.5 109.5t24.5 104.5q0 121 -129 121q-84 0 -170 -45l-8 110q33 14 84 31t133 17q117 0 176 -64.5t59 -157.5q0 -61 -25.5 -122.5 t-61.5 -114.5t-72.5 -95t-61.5 -67l-100 -102h329v-111h-483z" />
<glyph unicode="&#xbe;" horiz-adv-x="1597" d="M164 575l8 119q43 -16 84 -26.5t86 -10.5q78 0 124 37t46 105t-54.5 98.5t-135.5 30.5h-50v108h47q78 0 133.5 28t55.5 99q0 57 -47 84t-107 27q-47 0 -85 -11.5t-72 -27.5l-9 115q43 16 96.5 26t106.5 10q51 0 99.5 -13t83 -39.5t56 -66.5t21.5 -93q0 -70 -45 -119 t-127 -70q72 -10 125 -59t53 -138q0 -111 -78.5 -178t-236.5 -67q-35 0 -90 8t-88 24zM481 -49l578 1464h125l-578 -1464h-125zM895 176v129l305 516h164v-536h90v-109h-90v-176h-137v176h-332zM995 285h238v405z" />
<glyph unicode="&#xbf;" horiz-adv-x="753" d="M70 -25q0 70 20.5 124.5t51 102.5t67.5 91t67.5 91t51 103.5t20.5 126.5v37h166v-39q0 -121 -39 -199.5t-86 -142t-86 -125t-39 -145.5q0 -92 55.5 -147.5t153.5 -55.5q68 0 117 18.5t88 43.5l12 -172q-45 -18 -107.5 -33.5t-133.5 -15.5q-84 0 -153 20t-120 62 t-78.5 105.5t-27.5 149.5zM334 801v223h194v-223h-194z" />
<glyph unicode="&#xc0;" horiz-adv-x="1132" d="M23 0l440 1366h209l440 -1366h-199l-102 354h-494l-104 -354h-190zM340 1761h164l151 -278h-125zM354 502h416l-207 696z" />
<glyph unicode="&#xc1;" horiz-adv-x="1132" d="M23 0l440 1366h209l440 -1366h-199l-102 354h-494l-104 -354h-190zM354 502h416l-207 696zM483 1483l150 278h164l-189 -278h-125z" />
<glyph unicode="&#xc2;" horiz-adv-x="1132" d="M23 0l440 1366h209l440 -1366h-199l-102 354h-494l-104 -354h-190zM307 1483l189 278h143l188 -278h-139l-121 188l-118 -188h-142zM354 502h416l-207 696z" />
<glyph unicode="&#xc3;" horiz-adv-x="1132" d="M23 0l440 1366h209l440 -1366h-199l-102 354h-494l-104 -354h-190zM293 1507q0 37 11 77t31.5 72t51.5 53.5t74 21.5q33 0 63.5 -13.5t57 -31t51 -31t45.5 -13.5q33 0 49 33t16 60h101q0 -35 -10.5 -74t-30 -70.5t-50 -53t-71.5 -21.5q-35 0 -63.5 13t-54.5 29l-49 28 q-24 13 -48 13q-31 0 -51.5 -31.5t-20.5 -60.5h-102zM354 502h416l-207 696z" />
<glyph unicode="&#xc4;" horiz-adv-x="1132" d="M23 0l440 1366h209l440 -1366h-199l-102 354h-494l-104 -354h-190zM342 1524v198h145v-198h-145zM354 502h416l-207 696zM645 1524v198h146v-198h-146z" />
<glyph unicode="&#xc5;" horiz-adv-x="1132" d="M23 0l440 1366h209l440 -1366h-199l-102 354h-494l-104 -354h-190zM354 502h416l-207 696zM371 1620q0 41 15 77t43 61.5t62.5 41t75.5 15.5q39 0 75 -15.5t62.5 -41t42 -61.5t15.5 -77q0 -82 -56.5 -137.5t-138.5 -55.5t-139 55.5t-57 137.5zM455 1620q0 -47 32.5 -79 t79.5 -32t79 32t32 79t-32 80t-79 33q-45 0 -78.5 -33t-33.5 -80z" />
<glyph unicode="&#xc6;" horiz-adv-x="1515" d="M-14 0l659 1366h758v-156h-451v-426h426v-153h-426v-473h473v-158h-659v354h-410l-166 -354h-204zM420 502h346v729z" />
<glyph unicode="&#xc7;" horiz-adv-x="1017" d="M102 682q0 150 41 279t118 224t184.5 148t242.5 53q86 0 150.5 -16t109.5 -37l-12 -176q-41 31 -101.5 50.5t-129.5 19.5q-104 0 -181.5 -46t-127.5 -123t-73.5 -175.5t-23.5 -202.5q0 -102 23.5 -199.5t73.5 -173.5t126 -122t180 -46q84 0 137.5 20.5t100.5 43.5 l12 -183q-53 -16 -116.5 -29.5t-143.5 -13.5l-69 -88q12 4 28.5 7.5t40.5 3.5q57 0 97 -36t40 -95q0 -72 -60 -114t-151 -42q-51 0 -103 9t-81 26l27 69q27 -10 60.5 -20t76.5 -10q45 0 73.5 19.5t28.5 57.5q0 33 -22.5 50.5t-52.5 17.5q-29 0 -45.5 -4t-32.5 -12l-27 43 l92 123q-129 14 -225 75.5t-158.5 155.5t-94.5 215t-32 254z" />
<glyph unicode="&#xc8;" horiz-adv-x="923" d="M166 0v1366h645v-156h-457v-426h432v-153h-432v-473h480v-158h-668zM262 1761h164l149 -278h-124z" />
<glyph unicode="&#xc9;" horiz-adv-x="923" d="M166 0v1366h645v-156h-457v-426h432v-153h-432v-473h480v-158h-668zM401 1483l150 278h164l-187 -278h-127z" />
<glyph unicode="&#xca;" horiz-adv-x="923" d="M166 0v1366h645v-156h-457v-426h432v-153h-432v-473h480v-158h-668zM227 1483l191 278h141l189 -278h-140l-121 188l-118 -188h-142z" />
<glyph unicode="&#xcb;" horiz-adv-x="923" d="M166 0v1366h645v-156h-457v-426h432v-153h-432v-473h480v-158h-668zM264 1524v198h144v-198h-144zM567 1524v198h146v-198h-146z" />
<glyph unicode="&#xcc;" horiz-adv-x="520" d="M31 1761h162l151 -278h-125zM166 0v1366h190v-1366h-190z" />
<glyph unicode="&#xcd;" horiz-adv-x="520" d="M166 0v1366h190v-1366h-190zM176 1483l152 278h161l-188 -278h-125z" />
<glyph unicode="&#xce;" horiz-adv-x="520" d="M-2 1483l190 278h146l188 -278h-141l-121 188l-119 -188h-143zM166 0v1366h190v-1366h-190z" />
<glyph unicode="&#xcf;" horiz-adv-x="520" d="M37 1524v198h143v-198h-143zM166 0v1366h190v-1366h-190zM340 1524v198h145v-198h-145z" />
<glyph unicode="&#xd0;" horiz-adv-x="1175" d="M45 618v136h121v612h252q334 0 495.5 -180t161.5 -504q0 -152 -39 -276.5t-115.5 -215t-193.5 -140.5t-272 -50h-289v618h-121zM356 158h111q117 0 194.5 42t126 114.5t69 168t20.5 199.5q0 111 -21.5 207t-73 167.5t-133.5 112.5t-205 41h-88v-456h258v-136h-258v-460z " />
<glyph unicode="&#xd1;" horiz-adv-x="1232" d="M166 0v1366h254l479 -1143v1143h170v-1366h-254l-479 1141v-1141h-170zM348 1505q0 37 11.5 76t32 70.5t51 53t73.5 21.5q33 0 63.5 -13t57.5 -29.5t51.5 -30t44.5 -13.5q33 0 49.5 33t16.5 62h102q0 -35 -10 -74t-30.5 -72t-51.5 -54.5t-72 -21.5q-35 0 -63.5 13.5 t-54 30t-49 29.5t-48.5 13q-33 0 -52 -32.5t-19 -61.5h-103z" />
<glyph unicode="&#xd2;" horiz-adv-x="1210" d="M102 682q0 121 26 246t84 227t154.5 166.5t237.5 64.5q152 0 250 -64.5t154.5 -165.5t79 -226t22.5 -248t-24.5 -248t-84 -226.5t-156.5 -166t-241 -64.5q-150 0 -247 63.5t-153.5 165t-79 227.5t-22.5 249zM299 682q0 -90 11.5 -187.5t43 -178t92 -133t158.5 -52.5 q100 0 161.5 55.5t93.5 138.5t42 179t10 178q0 84 -9 181.5t-41 179t-92 136t-165 54.5q-98 0 -158.5 -55.5t-93.5 -138.5t-43 -179t-10 -178zM371 1761h164l149 -278h-125z" />
<glyph unicode="&#xd3;" horiz-adv-x="1210" d="M102 682q0 121 26 246t84 227t154.5 166.5t237.5 64.5q152 0 250 -64.5t154.5 -165.5t79 -226t22.5 -248t-24.5 -248t-84 -226.5t-156.5 -166t-241 -64.5q-150 0 -247 63.5t-153.5 165t-79 227.5t-22.5 249zM299 682q0 -90 11.5 -187.5t43 -178t92 -133t158.5 -52.5 q100 0 161.5 55.5t93.5 138.5t42 179t10 178q0 84 -9 181.5t-41 179t-92 136t-165 54.5q-98 0 -158.5 -55.5t-93.5 -138.5t-43 -179t-10 -178zM526 1483l152 278h162l-189 -278h-125z" />
<glyph unicode="&#xd4;" horiz-adv-x="1210" d="M102 682q0 121 26 246t84 227t154.5 166.5t237.5 64.5q152 0 250 -64.5t154.5 -165.5t79 -226t22.5 -248t-24.5 -248t-84 -226.5t-156.5 -166t-241 -64.5q-150 0 -247 63.5t-153.5 165t-79 227.5t-22.5 249zM299 682q0 -90 11.5 -187.5t43 -178t92 -133t158.5 -52.5 q100 0 161.5 55.5t93.5 138.5t42 179t10 178q0 84 -9 181.5t-41 179t-92 136t-165 54.5q-98 0 -158.5 -55.5t-93.5 -138.5t-43 -179t-10 -178zM346 1483l189 278h141l188 -278h-139l-121 188l-119 -188h-139z" />
<glyph unicode="&#xd5;" horiz-adv-x="1210" d="M102 682q0 121 26 246t84 227t154.5 166.5t237.5 64.5q152 0 250 -64.5t154.5 -165.5t79 -226t22.5 -248t-24.5 -248t-84 -226.5t-156.5 -166t-241 -64.5q-150 0 -247 63.5t-153.5 165t-79 227.5t-22.5 249zM299 682q0 -90 11.5 -187.5t43 -178t92 -133t158.5 -52.5 q100 0 161.5 55.5t93.5 138.5t42 179t10 178q0 84 -9 181.5t-41 179t-92 136t-165 54.5q-98 0 -158.5 -55.5t-93.5 -138.5t-43 -179t-10 -178zM328 1507q0 37 11 77t32.5 72t52.5 53.5t74 21.5q33 0 63.5 -13.5t57 -31t51 -31t45.5 -13.5q33 0 48 33t15 60h103 q0 -35 -10.5 -74t-30 -70.5t-50 -53t-71.5 -21.5q-35 0 -63.5 13t-55.5 29l-50 28q-24 13 -48 13q-31 0 -51.5 -31.5t-20.5 -60.5h-102z" />
<glyph unicode="&#xd6;" horiz-adv-x="1210" d="M102 682q0 121 26 246t84 227t154.5 166.5t237.5 64.5q152 0 250 -64.5t154.5 -165.5t79 -226t22.5 -248t-24.5 -248t-84 -226.5t-156.5 -166t-241 -64.5q-150 0 -247 63.5t-153.5 165t-79 227.5t-22.5 249zM299 682q0 -90 11.5 -187.5t43 -178t92 -133t158.5 -52.5 q100 0 161.5 55.5t93.5 138.5t42 179t10 178q0 84 -9 181.5t-41 179t-92 136t-165 54.5q-98 0 -158.5 -55.5t-93.5 -138.5t-43 -179t-10 -178zM381 1524v198h143v-198h-143zM684 1524v198h143v-198h-143z" />
<glyph unicode="&#xd7;" horiz-adv-x="1150" d="M84 123l385 385l-385 387l106 109l385 -390l388 387l106 -106l-385 -387l385 -385l-106 -109l-385 387l-388 -385z" />
<glyph unicode="&#xd8;" horiz-adv-x="1212" d="M39 8l158 209q-53 102 -74 223t-21 242t26 246t84 227t154.5 166.5t237.5 64.5q123 0 210 -43t147 -114l147 198l68 -55l-164 -219q55 -102 76.5 -225t21.5 -246t-24.5 -248t-84 -226.5t-156.5 -166t-241 -64.5q-125 0 -211 45.5t-145 120.5l-142 -188zM299 682 q0 -66 6 -141.5t29 -145.5l510 686q-35 68 -90.5 110t-149.5 42q-98 0 -158.5 -55.5t-93.5 -138.5t-43 -179t-10 -178zM365 293q35 -72 90 -117t149 -45q100 0 161.5 55.5t93.5 138.5t42 179t10 178q0 70 -6 147.5t-28 149.5z" />
<glyph unicode="&#xd9;" horiz-adv-x="1155" d="M150 496v870h190v-889q0 -63 7 -124.5t31.5 -110.5t72 -79t127.5 -30q76 0 123 30t73.5 79t34.5 110.5t8 124.5v889h191v-870q0 -106 -22.5 -200.5t-74 -165.5t-133.5 -112t-200 -41q-123 0 -205 40t-132.5 109t-70.5 164t-20 206zM371 1761h164l149 -278h-125z" />
<glyph unicode="&#xda;" horiz-adv-x="1155" d="M150 496v870h190v-889q0 -63 7 -124.5t31.5 -110.5t72 -79t127.5 -30q76 0 123 30t73.5 79t34.5 110.5t8 124.5v889h191v-870q0 -106 -22.5 -200.5t-74 -165.5t-133.5 -112t-200 -41q-123 0 -205 40t-132.5 109t-70.5 164t-20 206zM481 1483l150 278h166l-189 -278h-127z " />
<glyph unicode="&#xdb;" horiz-adv-x="1155" d="M150 496v870h190v-889q0 -63 7 -124.5t31.5 -110.5t72 -79t127.5 -30q76 0 123 30t73.5 79t34.5 110.5t8 124.5v889h191v-870q0 -106 -22.5 -200.5t-74 -165.5t-133.5 -112t-200 -41q-123 0 -205 40t-132.5 109t-70.5 164t-20 206zM317 1483l189 278h143l189 -278h-138 l-122 188l-119 -188h-142z" />
<glyph unicode="&#xdc;" horiz-adv-x="1155" d="M150 496v870h190v-889q0 -63 7 -124.5t31.5 -110.5t72 -79t127.5 -30q76 0 123 30t73.5 79t34.5 110.5t8 124.5v889h191v-870q0 -106 -22.5 -200.5t-74 -165.5t-133.5 -112t-200 -41q-123 0 -205 40t-132.5 109t-70.5 164t-20 206zM354 1524v198h144v-198h-144zM657 1524 v198h144v-198h-144z" />
<glyph unicode="&#xdd;" horiz-adv-x="911" d="M0 1366h213l250 -625l246 625h202l-360 -797v-569h-191v569zM371 1483l149 278h164l-188 -278h-125z" />
<glyph unicode="&#xde;" horiz-adv-x="978" d="M166 0v1366h188v-270h131q98 0 178 -24.5t137.5 -75t89.5 -126t32 -178.5q0 -193 -112 -297t-300 -104h-156v-291h-188zM352 444h119q129 0 192.5 59.5t63.5 188.5q0 135 -73.5 192.5t-204.5 57.5h-97v-498z" />
<glyph unicode="&#xdf;" horiz-adv-x="1026" d="M139 0v1047q0 90 25.5 171.5t74 143t118 98.5t157.5 37q100 0 173 -40t120 -106.5t69.5 -151.5t22.5 -177v-82q-35 0 -79 -7t-85 -25.5t-68.5 -49.5t-27.5 -80t24.5 -86t61.5 -68.5l79 -64.5t79 -71.5t61.5 -90t24.5 -121.5q0 -63 -18.5 -117.5t-53.5 -94t-86 -63.5 t-117 -24q-72 0 -117 12.5t-110 37.5l10 149q43 -27 85 -43t97 -16q61 0 97.5 44t36.5 105q0 43 -25 78t-61.5 66.5t-78.5 64.5t-79 74t-61.5 94t-24.5 125q0 57 20.5 106.5t56 85t85 57t104.5 25.5q0 53 -10 109.5t-35 102.5t-65.5 75t-102.5 29q-57 0 -95 -32t-61.5 -78 t-34 -101t-10.5 -100v-1047h-176z" />
<glyph unicode="&#xe0;" horiz-adv-x="937" d="M68 270q0 102 46 170t117.5 108t158.5 56.5t171 16.5h68v61q0 100 -44 162.5t-159 62.5q-66 0 -137.5 -28.5t-128.5 -71.5l-13 158q72 35 141.5 57t162.5 22q188 0 269 -93t81 -253v-475q0 -63 3 -116.5t7 -106.5h-170l-8 143q-53 -82 -115.5 -124t-161.5 -42 q-63 0 -116.5 23t-91 61.5t-59 93t-21.5 115.5zM233 1475h162l152 -279h-125zM246 279q0 -74 45 -119t121 -45q57 0 98 24.5t67.5 64.5t39 90t12.5 101v109h-33q-61 0 -122.5 -7.5t-113 -32t-83 -68t-31.5 -117.5z" />
<glyph unicode="&#xe1;" horiz-adv-x="937" d="M68 270q0 102 46 170t117.5 108t158.5 56.5t171 16.5h68v61q0 100 -44 162.5t-159 62.5q-66 0 -137.5 -28.5t-128.5 -71.5l-13 158q72 35 141.5 57t162.5 22q188 0 269 -93t81 -253v-475q0 -63 3 -116.5t7 -106.5h-170l-8 143q-53 -82 -115.5 -124t-161.5 -42 q-63 0 -116.5 23t-91 61.5t-59 93t-21.5 115.5zM246 279q0 -74 45 -119t121 -45q57 0 98 24.5t67.5 64.5t39 90t12.5 101v109h-33q-61 0 -122.5 -7.5t-113 -32t-83 -68t-31.5 -117.5zM358 1196l154 279h162l-189 -279h-127z" />
<glyph unicode="&#xe2;" horiz-adv-x="937" d="M68 270q0 102 46 170t117.5 108t158.5 56.5t171 16.5h68v61q0 100 -44 162.5t-159 62.5q-66 0 -137.5 -28.5t-128.5 -71.5l-13 158q72 35 141.5 57t162.5 22q188 0 269 -93t81 -253v-475q0 -63 3 -116.5t7 -106.5h-170l-8 143q-53 -82 -115.5 -124t-161.5 -42 q-63 0 -116.5 23t-91 61.5t-59 93t-21.5 115.5zM193 1196l186 279h143l189 -279h-142l-118 188l-117 -188h-141zM246 279q0 -74 45 -119t121 -45q57 0 98 24.5t67.5 64.5t39 90t12.5 101v109h-33q-61 0 -122.5 -7.5t-113 -32t-83 -68t-31.5 -117.5z" />
<glyph unicode="&#xe3;" horiz-adv-x="937" d="M68 270q0 102 46 170t117.5 108t158.5 56.5t171 16.5h68v61q0 100 -44 162.5t-159 62.5q-66 0 -137.5 -28.5t-128.5 -71.5l-13 158q72 35 141.5 57t162.5 22q188 0 269 -93t81 -253v-475q0 -63 3 -116.5t7 -106.5h-170l-8 143q-53 -82 -115.5 -124t-161.5 -42 q-63 0 -116.5 23t-91 61.5t-59 93t-21.5 115.5zM184 1221q0 37 11.5 75.5t32 70.5t51 52.5t73.5 20.5q33 0 63.5 -13.5t57.5 -28.5l51 -29q25 -13 45 -13q33 0 48.5 32.5t15.5 59.5h102q0 -35 -10 -74t-30.5 -71.5t-51.5 -54t-72 -21.5q-35 0 -63.5 13t-54 29.5t-49 30 t-48.5 13.5q-31 0 -51 -32t-20 -60h-101zM246 279q0 -74 45 -119t121 -45q57 0 98 24.5t67.5 64.5t39 90t12.5 101v109h-33q-61 0 -122.5 -7.5t-113 -32t-83 -68t-31.5 -117.5z" />
<glyph unicode="&#xe4;" horiz-adv-x="937" d="M68 270q0 102 46 170t117.5 108t158.5 56.5t171 16.5h68v61q0 100 -44 162.5t-159 62.5q-66 0 -137.5 -28.5t-128.5 -71.5l-13 158q72 35 141.5 57t162.5 22q188 0 269 -93t81 -253v-475q0 -63 3 -116.5t7 -106.5h-170l-8 143q-53 -82 -115.5 -124t-161.5 -42 q-63 0 -116.5 23t-91 61.5t-59 93t-21.5 115.5zM231 1233v197h144v-197h-144zM246 279q0 -74 45 -119t121 -45q57 0 98 24.5t67.5 64.5t39 90t12.5 101v109h-33q-61 0 -122.5 -7.5t-113 -32t-83 -68t-31.5 -117.5zM535 1233v197h143v-197h-143z" />
<glyph unicode="&#xe5;" horiz-adv-x="937" d="M68 270q0 102 46 170t117.5 108t158.5 56.5t171 16.5h68v61q0 100 -44 162.5t-159 62.5q-66 0 -137.5 -28.5t-128.5 -71.5l-13 158q72 35 141.5 57t162.5 22q188 0 269 -93t81 -253v-475q0 -63 3 -116.5t7 -106.5h-170l-8 143q-53 -82 -115.5 -124t-161.5 -42 q-63 0 -116.5 23t-91 61.5t-59 93t-21.5 115.5zM246 279q0 -74 45 -119t121 -45q57 0 98 24.5t67.5 64.5t39 90t12.5 101v109h-33q-61 0 -122.5 -7.5t-113 -32t-83 -68t-31.5 -117.5zM258 1335q0 41 15.5 76t43 61.5t62.5 41t76 14.5q39 0 74.5 -14.5t62 -41t42 -61.5 t15.5 -76q0 -82 -56 -137t-138 -55t-139.5 55t-57.5 137zM342 1335q0 -47 33 -79.5t80 -32.5t78.5 32.5t31.5 79.5t-31.5 80t-78.5 33q-45 0 -79 -33t-34 -80z" />
<glyph unicode="&#xe6;" horiz-adv-x="1406" d="M68 268q0 90 39.5 154.5t103 104.5t143.5 58.5t162 18.5h92v47q0 43 -8 88t-28.5 83t-56.5 61.5t-91 23.5q-74 0 -136.5 -28.5t-127.5 -71.5l-13 158q74 39 141.5 59t160.5 20q96 0 169.5 -45t98.5 -120q41 72 101.5 118.5t154.5 46.5q111 0 181.5 -46t109.5 -118.5 t53 -160.5t14 -172v-64h-551q0 -61 11.5 -126.5t39 -119t76.5 -88t123 -34.5q59 0 126 21.5t116 56.5l12 -158q-66 -27 -131.5 -42.5t-136.5 -15.5q-76 0 -128 14.5t-91 43t-67 68.5t-54 94q-41 -98 -121 -159t-209 -61q-133 0 -205.5 81t-72.5 210zM246 272 q0 -72 41 -115.5t112 -43.5q57 0 97.5 26.5t65 68.5t35.5 93t11 100v82h-41q-51 0 -107.5 -8t-104.5 -31.5t-78.5 -64.5t-30.5 -107zM780 604h377q0 45 -6 99.5t-24.5 100.5t-55.5 76.5t-98 30.5q-57 0 -94 -31.5t-58.5 -77.5t-31 -100.5t-9.5 -97.5z" />
<glyph unicode="&#xe7;" horiz-adv-x="790" d="M82 516q0 113 30.5 210t88 168t139.5 110.5t182 39.5q102 0 203 -40l-12 -156q-37 25 -82 36t-90 11q-74 0 -126.5 -35t-84 -90t-46 -122.5t-14.5 -131.5q0 -68 14.5 -137.5t47.5 -125.5t87 -91t134 -35q41 0 86 15.5t80 37.5l12 -162q-51 -18 -102 -29.5t-105 -11.5 l-67 -88q12 4 27.5 7.5t39.5 3.5q57 0 97.5 -36t40.5 -95q0 -72 -59.5 -114t-149.5 -42q-51 0 -104.5 9t-82.5 26l27 69q27 -10 60.5 -20t76.5 -10q45 0 73.5 19.5t28.5 57.5q0 33 -22.5 50.5t-52.5 17.5q-29 0 -45.5 -4t-32.5 -12l-27 43l90 123q-96 14 -163.5 63 t-111.5 123t-64.5 164t-20.5 184z" />
<glyph unicode="&#xe8;" horiz-adv-x="890" d="M82 516q0 94 21.5 188.5t66.5 170t116.5 122.5t174.5 47q104 0 172.5 -47t108.5 -121.5t56.5 -166t16.5 -177.5v-65h-553q0 -63 12.5 -125.5t43 -113t81 -82t127.5 -31.5q61 0 126 21.5t116 56.5l12 -158q-59 -29 -132 -43.5t-138 -14.5q-121 0 -202 44.5t-132 118 t-72.5 170.5t-21.5 206zM231 1475h164l152 -279h-125zM262 586h381q0 47 -7 103t-27.5 105.5t-56.5 83t-91 33.5t-93 -32.5t-61.5 -80.5t-34 -105.5t-10.5 -106.5z" />
<glyph unicode="&#xe9;" horiz-adv-x="890" d="M82 516q0 94 21.5 188.5t66.5 170t116.5 122.5t174.5 47q104 0 172.5 -47t108.5 -121.5t56.5 -166t16.5 -177.5v-65h-553q0 -63 12.5 -125.5t43 -113t81 -82t127.5 -31.5q61 0 126 21.5t116 56.5l12 -158q-59 -29 -132 -43.5t-138 -14.5q-121 0 -202 44.5t-132 118 t-72.5 170.5t-21.5 206zM262 586h381q0 47 -7 103t-27.5 105.5t-56.5 83t-91 33.5t-93 -32.5t-61.5 -80.5t-34 -105.5t-10.5 -106.5zM377 1196l151 279h162l-188 -279h-125z" />
<glyph unicode="&#xea;" horiz-adv-x="890" d="M82 516q0 94 21.5 188.5t66.5 170t116.5 122.5t174.5 47q104 0 172.5 -47t108.5 -121.5t56.5 -166t16.5 -177.5v-65h-553q0 -63 12.5 -125.5t43 -113t81 -82t127.5 -31.5q61 0 126 21.5t116 56.5l12 -158q-59 -29 -132 -43.5t-138 -14.5q-121 0 -202 44.5t-132 118 t-72.5 170.5t-21.5 206zM195 1196l186 279h143l189 -279h-142l-118 188l-117 -188h-141zM262 586h381q0 47 -7 103t-27.5 105.5t-56.5 83t-91 33.5t-93 -32.5t-61.5 -80.5t-34 -105.5t-10.5 -106.5z" />
<glyph unicode="&#xeb;" horiz-adv-x="890" d="M82 516q0 94 21.5 188.5t66.5 170t116.5 122.5t174.5 47q104 0 172.5 -47t108.5 -121.5t56.5 -166t16.5 -177.5v-65h-553q0 -63 12.5 -125.5t43 -113t81 -82t127.5 -31.5q61 0 126 21.5t116 56.5l12 -158q-59 -29 -132 -43.5t-138 -14.5q-121 0 -202 44.5t-132 118 t-72.5 170.5t-21.5 206zM231 1233v197h146v-197h-146zM262 586h381q0 47 -7 103t-27.5 105.5t-56.5 83t-91 33.5t-93 -32.5t-61.5 -80.5t-34 -105.5t-10.5 -106.5zM535 1233v197h145v-197h-145z" />
<glyph unicode="&#xec;" horiz-adv-x="452" d="M2 1475h162l153 -279h-127zM139 0v1024h176v-1024h-176z" />
<glyph unicode="&#xed;" horiz-adv-x="452" d="M137 1196l154 279h162l-191 -279h-125zM139 0v1024h176v-1024h-176z" />
<glyph unicode="&#xee;" horiz-adv-x="452" d="M-33 1196l189 279h141l188 -279h-141l-119 188l-114 -188h-144zM137 0v1024h176v-1024h-176z" />
<glyph unicode="&#xef;" horiz-adv-x="452" d="M4 1233v197h143v-197h-143zM139 0v1024h176v-1024h-176zM307 1233v197h144v-197h-144z" />
<glyph unicode="&#xf0;" d="M82 506q0 94 21.5 185t66.5 163t116.5 116t172.5 44q66 0 122 -33t97 -80q-35 104 -80 194.5t-123 159.5l-192 -114l-74 71l184 107q-41 27 -93 54.5t-105 47.5l129 76q59 -23 112 -47.5t99 -56.5l182 104l71 -67l-170 -103q76 -66 127.5 -156t84 -190t47 -205.5 t14.5 -202.5q0 -96 -17.5 -201.5t-61.5 -192.5t-123 -144.5t-202 -57.5q-111 0 -187.5 46.5t-124.5 121t-70.5 170t-22.5 191.5zM270 506q0 -55 8.5 -123t33 -126t66.5 -97t109 -39q70 0 113 39t66.5 97t32 125t8.5 124q0 53 -7.5 116.5t-31 119t-66.5 92t-115 36.5 q-70 0 -112.5 -36.5t-65 -91t-31 -118t-8.5 -118.5z" />
<glyph unicode="&#xf1;" horiz-adv-x="985" d="M131 1024h164l4 -147q41 76 109.5 121.5t156.5 45.5q78 0 132.5 -27.5t88 -75.5t48 -111.5t14.5 -133.5v-696h-176v690q0 39 -7.5 76t-25.5 66.5t-50 48t-79 18.5q-51 0 -88 -23.5t-60.5 -60.5t-35 -82t-11.5 -88v-645h-176v741q0 72 -3 141.5t-5 141.5zM217 1221 q0 37 11.5 75.5t32 70.5t51 52.5t73.5 20.5q33 0 63.5 -13.5t57.5 -28.5l51 -29q25 -13 45 -13q33 0 49.5 32.5t16.5 59.5h102q0 -35 -10 -74t-30.5 -71.5t-51.5 -54t-72 -21.5q-35 0 -63.5 13t-54 29.5t-49 30t-48.5 13.5q-31 0 -51.5 -32t-20.5 -60h-102z" />
<glyph unicode="&#xf2;" horiz-adv-x="974" d="M82 516q0 94 23.5 188.5t72.5 170t126 122.5t183 47q115 0 193 -46t125 -119.5t67.5 -169t20.5 -193.5q0 -96 -21.5 -191.5t-69.5 -173t-126 -126t-189 -48.5q-113 0 -189.5 47.5t-124.5 124t-69.5 173t-21.5 194.5zM266 1475h164l152 -279h-125zM270 516 q0 -53 7.5 -121.5t31 -129t65.5 -102.5t113 -42q70 0 113 42t65.5 102.5t31 129t8.5 121.5q0 55 -7.5 122t-30 125t-65.5 98t-115 40q-68 0 -110.5 -41t-66 -100.5t-32 -126t-8.5 -117.5z" />
<glyph unicode="&#xf3;" horiz-adv-x="974" d="M82 516q0 94 23.5 188.5t72.5 170t126 122.5t183 47q115 0 193 -46t125 -119.5t67.5 -169t20.5 -193.5q0 -96 -21.5 -191.5t-69.5 -173t-126 -126t-189 -48.5q-113 0 -189.5 47.5t-124.5 124t-69.5 173t-21.5 194.5zM270 516q0 -53 7.5 -121.5t31 -129t65.5 -102.5 t113 -42q70 0 113 42t65.5 102.5t31 129t8.5 121.5q0 55 -7.5 122t-30 125t-65.5 98t-115 40q-68 0 -110.5 -41t-66 -100.5t-32 -126t-8.5 -117.5zM393 1196l154 279h162l-191 -279h-125z" />
<glyph unicode="&#xf4;" horiz-adv-x="974" d="M82 516q0 94 23.5 188.5t72.5 170t126 122.5t183 47q115 0 193 -46t125 -119.5t67.5 -169t20.5 -193.5q0 -96 -21.5 -191.5t-69.5 -173t-126 -126t-189 -48.5q-113 0 -189.5 47.5t-124.5 124t-69.5 173t-21.5 194.5zM229 1196l189 279h141l189 -279h-142l-119 188 l-114 -188h-144zM270 516q0 -53 7.5 -121.5t31 -129t65.5 -102.5t113 -42q70 0 113 42t65.5 102.5t31 129t8.5 121.5q0 55 -7.5 122t-30 125t-65.5 98t-115 40q-68 0 -110.5 -41t-66 -100.5t-32 -126t-8.5 -117.5z" />
<glyph unicode="&#xf5;" horiz-adv-x="974" d="M82 516q0 94 23.5 188.5t72.5 170t126 122.5t183 47q115 0 193 -46t125 -119.5t67.5 -169t20.5 -193.5q0 -96 -21.5 -191.5t-69.5 -173t-126 -126t-189 -48.5q-113 0 -189.5 47.5t-124.5 124t-69.5 173t-21.5 194.5zM215 1221q0 37 11.5 75.5t32 70.5t51 52.5t73.5 20.5 q33 0 63.5 -13.5t57.5 -28.5l51 -29q25 -13 45 -13q33 0 48.5 32.5t15.5 59.5h102q0 -35 -10.5 -74t-29.5 -71.5t-50 -54t-72 -21.5q-35 0 -63.5 13t-55.5 30l-50 29q-24 13 -48 14q-31 0 -51.5 -32t-20.5 -60h-100zM270 516q0 -53 7.5 -121.5t31 -129t65.5 -102.5t113 -42 q70 0 113 42t65.5 102.5t31 129t8.5 121.5q0 55 -7.5 122t-30 125t-65.5 98t-115 40q-68 0 -110.5 -41t-66 -100.5t-32 -126t-8.5 -117.5z" />
<glyph unicode="&#xf6;" horiz-adv-x="974" d="M82 516q0 94 23.5 188.5t72.5 170t126 122.5t183 47q115 0 193 -46t125 -119.5t67.5 -169t20.5 -193.5q0 -96 -21.5 -191.5t-69.5 -173t-126 -126t-189 -48.5q-113 0 -189.5 47.5t-124.5 124t-69.5 173t-21.5 194.5zM264 1233v197h144v-197h-144zM270 516 q0 -53 7.5 -121.5t31 -129t65.5 -102.5t113 -42q70 0 113 42t65.5 102.5t31 129t8.5 121.5q0 55 -7.5 122t-30 125t-65.5 98t-115 40q-68 0 -110.5 -41t-66 -100.5t-32 -126t-8.5 -117.5zM567 1233v197h146v-197h-146z" />
<glyph unicode="&#xf7;" horiz-adv-x="1150" d="M57 432v150h1039v-150h-1039zM459 133q0 49 34.5 83t81.5 34q49 0 84 -34t35 -83t-34.5 -84t-84.5 -35q-49 0 -82.5 35t-33.5 84zM459 883q0 49 33.5 83.5t82.5 34.5t84 -34.5t35 -83.5t-34.5 -84t-84.5 -35q-47 0 -81.5 35t-34.5 84z" />
<glyph unicode="&#xf8;" horiz-adv-x="974" d="M39 -4l129 166q-47 78 -66.5 171t-19.5 183q0 94 23.5 188.5t72.5 170t126 122.5t183 47q92 0 160 -31.5t115 -84.5l112 147l60 -49l-125 -160q47 -76 65.5 -167t18.5 -183q0 -96 -21.5 -191.5t-69.5 -173t-126 -126t-189 -48.5q-90 0 -156.5 32t-115.5 89l-117 -151z M270 516q0 -43 5.5 -93t19.5 -97l362 467q-23 47 -64.5 77.5t-105.5 30.5q-68 0 -110.5 -41t-66 -100.5t-32 -126t-8.5 -117.5zM322 236q23 -49 63.5 -82t101.5 -33q70 0 113 41t65.5 101.5t31 129t8.5 123.5q0 41 -4.5 90t-16.5 96z" />
<glyph unicode="&#xf9;" horiz-adv-x="976" d="M135 328v696h176v-688q0 -41 7.5 -79t25.5 -67.5t49 -47t78 -17.5q49 0 85 20.5t59.5 55.5t36 79t12.5 93v651h176v-741q0 -72 3 -141.5t5 -141.5h-164l-4 145q-41 -76 -105.5 -122t-156.5 -46q-78 0 -131.5 27t-87 74t-49 111.5t-15.5 138.5zM268 1475h162l154 -279 h-125z" />
<glyph unicode="&#xfa;" horiz-adv-x="976" d="M135 328v696h176v-688q0 -41 7.5 -79t25.5 -67.5t49 -47t78 -17.5q49 0 85 20.5t59.5 55.5t36 79t12.5 93v651h176v-741q0 -72 3 -141.5t5 -141.5h-164l-4 145q-41 -76 -105.5 -122t-156.5 -46q-78 0 -131.5 27t-87 74t-49 111.5t-15.5 138.5zM391 1196l152 279h162 l-189 -279h-125z" />
<glyph unicode="&#xfb;" horiz-adv-x="976" d="M135 328v696h176v-688q0 -41 7.5 -79t25.5 -67.5t49 -47t78 -17.5q49 0 85 20.5t59.5 55.5t36 79t12.5 93v651h176v-741q0 -72 3 -141.5t5 -141.5h-164l-4 145q-41 -76 -105.5 -122t-156.5 -46q-78 0 -131.5 27t-87 74t-49 111.5t-15.5 138.5zM227 1196l189 279h141 l188 -279h-141l-119 188l-114 -188h-144z" />
<glyph unicode="&#xfc;" horiz-adv-x="976" d="M135 328v696h176v-688q0 -41 7.5 -79t25.5 -67.5t49 -47t78 -17.5q49 0 85 20.5t59.5 55.5t36 79t12.5 93v651h176v-741q0 -72 3 -141.5t5 -141.5h-164l-4 145q-41 -76 -105.5 -122t-156.5 -46q-78 0 -131.5 27t-87 74t-49 111.5t-15.5 138.5zM262 1233v197h146v-197 h-146zM567 1233v197h144v-197h-144z" />
<glyph unicode="&#xfd;" horiz-adv-x="821" d="M23 1024h194l213 -801l195 801h180l-336 -1188q-18 -66 -39.5 -121t-54.5 -95t-78 -61.5t-109 -21.5q-55 0 -112 21l12 149q16 -10 41 -16t49 -6q43 0 72 41t43 90l47 174zM336 1196l149 279h166l-188 -279h-127z" />
<glyph unicode="&#xfe;" horiz-adv-x="995" d="M139 -442v1919h176v-596q39 72 100.5 117.5t155.5 45.5q104 0 171 -51t105 -130t52 -172t14 -175q0 -80 -16 -174t-55 -175t-106.5 -135.5t-168.5 -54.5q-94 0 -153.5 44.5t-98.5 117.5v-581h-176zM311 516q0 -59 6.5 -128t29 -128t63.5 -99t112 -40q66 0 106 43 t61.5 105.5t28.5 130t7 116.5t-6 115.5t-26.5 127t-60.5 101.5t-108 41t-108.5 -38t-64 -95t-32 -125t-8.5 -127z" />
<glyph unicode="&#xff;" horiz-adv-x="821" d="M23 1024h194l213 -801l195 801h180l-336 -1188q-18 -66 -39.5 -121t-54.5 -95t-78 -61.5t-109 -21.5q-55 0 -112 21l12 149q16 -10 41 -16t49 -6q43 0 72 41t43 90l47 174zM199 1233v197h143v-197h-143zM502 1233v197h143v-197h-143z" />
<glyph unicode="&#x152;" horiz-adv-x="1531" d="M102 682q0 121 25 246t83 227t155.5 166.5t242.5 64.5q55 0 113 -7l108 -13h590v-156h-450v-426h426v-153h-426v-473h473v-158h-613l-102 -14q-59 -8 -119 -9q-152 0 -250 63.5t-154.5 165t-79 226.5t-22.5 250zM301 682q0 -88 11.5 -185.5t44 -178t94 -134t161.5 -53.5 q53 0 95.5 5t74.5 22v1048q-31 10 -72.5 18.5t-97.5 8.5q-100 0 -160.5 -53.5t-94 -135t-45 -179t-11.5 -183.5z" />
<glyph unicode="&#x153;" horiz-adv-x="1509" d="M82 516q0 94 23.5 188.5t72.5 170t126 122.5t183 47q104 0 180 -47t124 -135q41 78 115.5 130t172.5 52q104 0 173 -47t109 -121.5t56.5 -166t16.5 -177.5v-65h-553q0 -63 12 -125.5t43 -113t81 -82t128 -31.5q61 0 125.5 21.5t115.5 56.5l13 -158q-59 -29 -132 -43.5 t-139 -14.5q-236 0 -337 189q-45 -86 -123 -137.5t-181 -51.5q-113 0 -189.5 47.5t-124.5 124t-69.5 173t-21.5 194.5zM270 516q0 -55 7.5 -123.5t31 -129t65.5 -102.5t113 -42q70 0 113 42t65.5 103.5t31 130t8.5 121.5q0 55 -7.5 123t-30 127t-65.5 99t-115 40 q-68 0 -110.5 -41t-66 -101.5t-32 -128t-8.5 -118.5zM881 586h381q0 47 -7.5 103t-28 105.5t-56 83t-91.5 33.5q-55 0 -93 -32.5t-61.5 -80.5t-33.5 -105.5t-10 -106.5z" />
<glyph unicode="&#x178;" horiz-adv-x="911" d="M0 1366h213l250 -625l246 625h202l-360 -797v-569h-191v569zM233 1524v198h144v-198h-144zM537 1524v198h145v-198h-145z" />
<glyph unicode="&#x2c6;" horiz-adv-x="452" d="M-33 1196l189 279h141l188 -279h-141l-119 188l-114 -188h-144z" />
<glyph unicode="&#x2dc;" horiz-adv-x="452" d="M-47 1221q0 37 11 75.5t31.5 70.5t51.5 52.5t74 20.5q33 0 63.5 -13.5t57.5 -28.5l51 -29q25 -13 45 -13q33 0 48 32.5t15 59.5h103q0 -35 -10.5 -74t-31 -71.5t-51 -54t-71.5 -21.5q-35 0 -63.5 13t-54 29.5t-49 30t-48.5 13.5q-31 0 -51.5 -32t-20.5 -60h-100z" />
<glyph unicode="&#x2000;" horiz-adv-x="907" />
<glyph unicode="&#x2001;" horiz-adv-x="1814" />
<glyph unicode="&#x2002;" horiz-adv-x="907" />
<glyph unicode="&#x2003;" horiz-adv-x="1814" />
<glyph unicode="&#x2004;" horiz-adv-x="604" />
<glyph unicode="&#x2005;" horiz-adv-x="452" />
<glyph unicode="&#x2006;" horiz-adv-x="301" />
<glyph unicode="&#x2007;" horiz-adv-x="301" />
<glyph unicode="&#x2008;" horiz-adv-x="225" />
<glyph unicode="&#x2009;" horiz-adv-x="362" />
<glyph unicode="&#x200a;" horiz-adv-x="100" />
<glyph unicode="&#x2010;" horiz-adv-x="598" d="M88 557v158h424v-158h-424z" />
<glyph unicode="&#x2011;" horiz-adv-x="598" d="M88 557v158h424v-158h-424z" />
<glyph unicode="&#x2012;" horiz-adv-x="598" d="M88 557v158h424v-158h-424z" />
<glyph unicode="&#x2013;" horiz-adv-x="1024" d="M0 567v138h1024v-138h-1024z" />
<glyph unicode="&#x2014;" horiz-adv-x="2048" d="M0 567v138h2048v-138h-2048z" />
<glyph unicode="&#x2018;" horiz-adv-x="485" d="M76 991l147 486h144l-109 -486h-182z" />
<glyph unicode="&#x2019;" horiz-adv-x="485" d="M119 991l108 486h183l-148 -486h-143z" />
<glyph unicode="&#x201a;" horiz-adv-x="485" d="M57 -262l109 485h182l-147 -485h-144z" />
<glyph unicode="&#x201c;" horiz-adv-x="794" d="M76 991l147 486h144l-109 -486h-182zM385 991l150 486h141l-107 -486h-184z" />
<glyph unicode="&#x201d;" horiz-adv-x="794" d="M119 991l108 486h183l-148 -486h-143zM428 991l111 486h180l-148 -486h-143z" />
<glyph unicode="&#x201e;" horiz-adv-x="794" d="M57 -262l109 485h182l-147 -485h-144zM367 -262l110 485h180l-145 -485h-145z" />
<glyph unicode="&#x2022;" d="M250 635q0 49 18.5 92t51 76t75.5 51t92 18t92.5 -18t75 -51t50 -76t18.5 -92t-18.5 -92t-50 -76t-74.5 -51.5t-93 -18.5q-49 0 -92 18.5t-75.5 51.5t-51 76t-18.5 92z" />
<glyph unicode="&#x2026;" horiz-adv-x="2048" d="M246 0v223h194v-223h-194zM928 0v223h194v-223h-194zM1610 0v223h194v-223h-194z" />
<glyph unicode="&#x202f;" horiz-adv-x="362" />
<glyph unicode="&#x2039;" horiz-adv-x="514" d="M66 524l225 412h153l-211 -412l211 -411h-153z" />
<glyph unicode="&#x203a;" horiz-adv-x="514" d="M72 113l211 411l-211 412h153l226 -412l-226 -411h-153z" />
<glyph unicode="&#x205f;" horiz-adv-x="452" />
<glyph unicode="&#x20ac;" d="M72 494l18 106h117q-2 23 -2 41v41v41q0 18 2 41h-135l18 108h131q14 92 47 184.5t87.5 166t134 118.5t190.5 45q117 0 211 -53l-29 -157q-29 29 -77 43t-87 14q-72 0 -122 -35t-84.5 -87t-55 -116.5t-30.5 -122.5h411l-18 -108h-406q-2 -23 -2 -41v-41v-40q0 -19 2 -42 h379l-18 -106h-348q8 -59 28.5 -123t56 -117t87 -88t122.5 -35q88 0 160 49l12 -166q-92 -37 -194 -37q-111 0 -191.5 45.5t-136 118t-87.5 164.5t-46 189h-145z" />
<glyph unicode="&#x2122;" horiz-adv-x="1589" d="M16 1257v109h535v-109h-195v-712h-145v712h-195zM676 545v821h211l190 -637l193 637h213v-821h-140v702l-215 -702h-110l-215 702v-702h-127z" />
<glyph unicode="&#xe000;" horiz-adv-x="1025" d="M0 1025h1025v-1025h-1025v1025z" />
<glyph unicode="&#xfb01;" horiz-adv-x="997" d="M35 883v141h160v178q0 160 67.5 227.5t196.5 67.5q43 0 72.5 -7t52.5 -11l-13 -140q-31 14 -75 15q-66 0 -95.5 -40t-29.5 -114v-176h180v-141h-180v-883h-176v883h-160zM682 1233v197h180v-197h-180zM684 0v1024h176v-1024h-176z" />
<glyph unicode="&#xfb02;" horiz-adv-x="997" d="M35 883v141h160v178q0 160 67.5 227.5t196.5 67.5q43 0 72.5 -7t52.5 -11l-13 -140q-31 14 -75 15q-66 0 -95.5 -40t-29.5 -114v-176h180v-141h-180v-883h-176v883h-160zM684 0v1477h176v-1477h-176z" />
<glyph unicode="&#xfb03;" horiz-adv-x="1603" d="M1288 1233v197h180v-197h-180zM1290 0v1024h176v-1024h-176zM610 883v141h160v178q0 160 67.5 227.5t196.5 67.5q43 0 72.5 -7t52.5 -11l-13 -140q-31 14 -75 15q-66 0 -95.5 -40t-29.5 -114v-176h180v-141h-180v-883h-176v883h-160zM35 883v141h160v178 q0 160 67.5 227.5t196.5 67.5q43 0 72.5 -7t52.5 -11l-13 -140q-31 14 -75 15q-66 0 -95.5 -40t-29.5 -114v-176h180v-141h-180v-883h-176v883h-160z" />
<glyph unicode="&#xfb04;" horiz-adv-x="1603" d="M1290 0v1477h176v-1477h-176zM610 883v141h160v178q0 160 67.5 227.5t196.5 67.5q43 0 72.5 -7t52.5 -11l-13 -140q-31 14 -75 15q-66 0 -95.5 -40t-29.5 -114v-176h180v-141h-180v-883h-176v883h-160zM35 883v141h160v178q0 160 67.5 227.5t196.5 67.5q43 0 72.5 -7 t52.5 -11l-13 -140q-31 14 -75 15q-66 0 -95.5 -40t-29.5 -114v-176h180v-141h-180v-883h-176v883h-160z" />
</font>
</defs>
</svg>
