<?xml version="1.0" standalone="no"?>
<!DOCTYPE svg PUBLIC "-//W3C//DTD SVG 1.1//EN" "http://www.w3.org/Graphics/SVG/1.1/DTD/svg11.dtd" >
<svg>
<metadata>
Created by FontForge 20110222 at Tue Jul 14 15:53:26 2015
 By www-data
 The digitally encoded machine readable software for producing the
 Typefaces licensed to you is copyrighted (c) 1988, 1990, 1994, 2002 Adobe Systems.
 All Rights Reserved. This software is the property of Adobe Systems
 Incorporated and its licensors, and may not be reproduced, used, 
 displayed, modified, disclosed or transferred without the express 
 written approval of Adobe.
 
 The digitally encoded machine readable outline data for producing the Typefaces 
 provided as part of your laser printer is copyrighted (c) 1981, 2002 Heidelberger Druckmaschinen AG. 
 All rights reserved. This data is the property of Heidelberger Druckmaschinen AG, 
 and may not be reproduced, used, displayed, modified, disclosed or transferred 
 without the express written approval of Heidelberger Druckmaschinen AG. 
</metadata>
<defs>
<font id="FrutigerLTStd-Italic" horiz-adv-x="556" >
  <font-face 
    font-family="Frutiger LT Std"
    font-weight="400"
    font-style="italic"
    font-stretch="normal"
    units-per-em="1000"
    panose-1="2 11 6 2 2 2 4 9 2 4"
    ascent="750"
    descent="-250"
    x-height="510"
    cap-height="698"
    bbox="-169 -250 1091 930"
    underline-thickness="50"
    underline-position="-50"
    slope="-12"
    stemh="76"
    stemv="94"
    unicode-range="U+0020-FB02"
  />
<missing-glyph horiz-adv-x="596" 
d="M96 0v700h500v-700h-500zM346 395l170 255h-340zM376 350l170 -255v510zM176 50h340l-170 255zM146 605v-510l170 255z" />
    <glyph glyph-name="f_i" unicode="fi" horiz-adv-x="667" 
d="M428 0l108 510h94l-108 -510h-94zM685 730l-22 -106h-106l22 106h106zM88 0l94 434h-122l14 76h124l12 50c19 85 56 202 203 202c23 0 48 -4 72 -11l-19 -75c-10 5 -35 10 -45 10c-83 0 -105 -68 -118 -129l-10 -47h135l-15 -76h-137l-94 -434h-94z" />
    <glyph glyph-name="f_l" unicode="fl" horiz-adv-x="667" 
d="M88 0l94 434h-122l14 76h124l12 50c19 85 56 202 203 202c23 0 48 -4 72 -11l-19 -75c-10 5 -35 10 -45 10c-83 0 -105 -68 -118 -129l-10 -47h135l-15 -76h-137l-94 -434h-94zM430 0l159 750h94l-159 -750h-94z" />
    <glyph glyph-name=".notdef" horiz-adv-x="596" 
d="M96 0v700h500v-700h-500zM346 395l170 255h-340zM376 350l170 -255v510zM176 50h340l-170 255zM146 605v-510l170 255z" />
    <glyph glyph-name="space" unicode=" " horiz-adv-x="278" 
 />
    <glyph glyph-name="exclam" unicode="!" horiz-adv-x="389" 
d="M140 196l97 502h118l-124 -502h-91zM89 0l23 112h112l-23 -112h-112z" />
    <glyph glyph-name="quotedbl" unicode="&#x22;" 
d="M363 453v245h88v-245h-88zM213 453v245h88v-245h-88z" />
    <glyph glyph-name="numbersign" unicode="#" 
d="M121 0l29 208h-106l11 76h106l18 130h-107l11 76h107l29 208h76l-29 -208h118l29 208h76l-29 -208h106l-11 -76h-106l-18 -130h106l-11 -76h-106l-29 -208h-76l29 208h-118l-29 -208h-76zM353 283l18 130h-118l-18 -130h118z" />
    <glyph glyph-name="dollar" unicode="$" 
d="M167 -103l19 91c-62 3 -114 17 -166 41l31 91c48 -26 98 -44 155 -44l55 251c-75 39 -150 89 -150 185c0 140 116 198 234 198l21 96h59l-22 -96c53 -4 104 -19 151 -41l-28 -93c-43 26 -91 44 -142 45l-48 -216c99 -59 167 -86 167 -212c0 -137 -134 -205 -260 -205
l-20 -91h-56zM284 431l42 191c-59 -2 -109 -33 -109 -98c0 -47 33 -75 67 -93zM313 300l-51 -224c62 1 135 39 135 111c0 64 -34 83 -84 113z" />
    <glyph glyph-name="percent" unicode="%" horiz-adv-x="1000" 
d="M112 497c0 108 65 213 178 213c99 0 144 -61 144 -153c0 -114 -57 -206 -178 -206c-89 0 -144 57 -144 146zM194 497c0 -47 12 -82 65 -82c74 0 93 90 93 148c0 44 -7 83 -62 83c-75 0 -96 -86 -96 -149zM549 134c0 108 65 213 178 213c99 0 144 -61 144 -153
c0 -114 -57 -206 -178 -206c-89 0 -144 57 -144 146zM631 134c0 -47 12 -82 65 -82c74 0 93 90 93 148c0 44 -7 83 -62 83c-75 0 -96 -86 -96 -149zM204 -22l510 742h70l-510 -742h-70z" />
    <glyph glyph-name="ampersand" unicode="&#x26;" horiz-adv-x="722" 
d="M400 355l111 -165c49 54 70 122 84 188h89c-16 -96 -48 -190 -124 -261l76 -117h-111l-34 53c-47 -39 -117 -65 -184 -65c-147 0 -238 70 -238 196c0 117 98 186 200 209c-35 46 -54 93 -54 151c0 103 102 166 194 166c97 0 188 -44 188 -154c0 -117 -102 -165 -197 -201
zM445 122l-133 204c-66 -17 -143 -54 -143 -137c0 -78 61 -125 133 -125c38 0 94 15 143 58zM356 420c59 16 153 55 153 129c0 60 -44 85 -96 85c-56 0 -104 -37 -104 -101c0 -44 23 -79 47 -113z" />
    <glyph glyph-name="quoteright" unicode="&#x2019;" horiz-adv-x="278" 
d="M90 453l115 245h119l-138 -245h-96z" />
    <glyph glyph-name="parenleft" unicode="(" horiz-adv-x="333" 
d="M336 756h100c-155 -157 -259 -311 -259 -539c0 -122 29 -240 60 -357h-83c-44 140 -71 264 -71 411c0 191 122 357 253 485z" />
    <glyph glyph-name="parenright" unicode=")" horiz-adv-x="333" 
d="M37 -140h-100c155 157 259 311 259 539c0 122 -29 240 -60 357h83c44 -140 71 -264 71 -411c0 -191 -122 -357 -253 -485z" />
    <glyph glyph-name="asterisk" unicode="*" 
d="M171 634l131 -94l21 158l86 -20l-48 -148l156 27l6 -87h-159l79 -139l-83 -37l-49 150l-111 -114l-58 65l129 92l-142 68z" />
    <glyph glyph-name="plus" unicode="+" horiz-adv-x="600" 
d="M62 209v88h209v209h88v-209h209v-88h-209v-209h-88v209h-209z" />
    <glyph glyph-name="comma" unicode="," horiz-adv-x="278" 
d="M-56 -133l113 245h120l-139 -245h-94z" />
    <glyph glyph-name="hyphen" unicode="-" horiz-adv-x="333" 
d="M35 231l16 76h263l-15 -76h-264z" />
    <glyph glyph-name="period" unicode="." horiz-adv-x="278" 
d="M34 0l23 112h112l-23 -112h-112z" />
    <glyph glyph-name="slash" unicode="/" horiz-adv-x="278" 
d="M0 -12l240 722h88l-240 -722h-88z" />
    <glyph glyph-name="zero" unicode="0" 
d="M47 216c0 189 90 494 316 494c134 0 189 -95 189 -226c0 -143 -58 -496 -319 -496c-136 0 -186 107 -186 228zM147 210c0 -62 18 -140 95 -140c157 0 210 316 210 420c0 55 -11 138 -100 138c-152 0 -205 -304 -205 -418z" />
    <glyph glyph-name="one" unicode="1" 
d="M191 0l125 583l-124 -86l-46 74l206 127h89l-150 -698h-100z" />
    <glyph glyph-name="two" unicode="2" 
d="M-2 0l22 102c86 68 405 298 405 426c0 80 -61 100 -118 100c-56 0 -113 -17 -162 -44l9 91c62 23 113 35 179 35c104 0 198 -47 198 -169c0 -173 -275 -367 -399 -457v-2h322l-18 -82h-438z" />
    <glyph glyph-name="three" unicode="3" 
d="M170 322l15 82c101 0 252 16 252 133c0 70 -63 91 -118 91s-116 -14 -167 -35l10 92c49 11 102 25 153 25c108 0 222 -31 222 -166c0 -98 -86 -168 -178 -181v-2c72 -19 117 -71 117 -146c0 -150 -146 -227 -272 -227c-67 0 -134 8 -198 31l24 89c49 -23 104 -38 159 -38
c85 0 187 43 187 148c0 98 -125 104 -206 104z" />
    <glyph glyph-name="four" unicode="4" 
d="M346 241l92 375h-2l-309 -375h219zM291 0l35 159h-326l19 82l379 457h144l-100 -457h90l-16 -82h-92l-35 -159h-98z" />
    <glyph glyph-name="five" unicode="5" 
d="M111 336l83 362h375l-17 -82h-283l-42 -182c19 2 38 5 57 5c123 0 209 -60 209 -190c0 -176 -131 -261 -298 -261c-66 0 -111 10 -159 22l17 89c43 -16 89 -29 136 -29c108 0 204 54 204 170c0 86 -74 117 -153 117c-44 0 -87 -8 -129 -21z" />
    <glyph glyph-name="six" unicode="6" 
d="M578 683l-31 -80c-32 17 -70 25 -106 25c-149 0 -225 -113 -265 -257l2 -2c44 46 92 70 158 70c105 0 177 -72 177 -177c0 -151 -86 -274 -251 -274c-134 0 -203 79 -203 216c0 182 81 506 374 506c48 0 101 -9 145 -27zM413 249c0 74 -52 108 -106 108
c-90 0 -148 -89 -148 -179c0 -59 32 -108 100 -108c98 0 154 98 154 179z" />
    <glyph glyph-name="seven" unicode="7" 
d="M127 616l19 82h442l-20 -89l-382 -609h-115l392 616h-336z" />
    <glyph glyph-name="eight" unicode="8" 
d="M224 522c0 -54 59 -99 100 -123c61 32 138 60 138 142c0 57 -57 87 -103 87c-61 0 -135 -28 -135 -106zM124 523c0 136 120 187 232 187c93 0 206 -45 206 -161c0 -92 -82 -156 -163 -182c66 -42 104 -87 104 -156c0 -135 -115 -223 -245 -223c-113 0 -226 49 -226 178
c0 119 100 186 186 204c-54 34 -94 87 -94 153zM132 182c0 -72 56 -112 125 -112c76 0 146 55 146 136c0 79 -89 111 -117 123c-70 -18 -154 -66 -154 -147z" />
    <glyph glyph-name="nine" unicode="9" 
d="M28 15l31 80c32 -17 70 -25 106 -25c149 0 225 113 265 257l-2 2c-44 -46 -92 -70 -158 -70c-105 0 -177 72 -177 177c0 151 86 274 251 274c134 0 203 -79 203 -216c0 -182 -81 -506 -374 -506c-48 0 -101 9 -145 27zM193 449c0 -74 52 -108 106 -108
c90 0 148 89 148 179c0 59 -32 108 -100 108c-98 0 -154 -98 -154 -179z" />
    <glyph glyph-name="colon" unicode=":" horiz-adv-x="278" 
d="M251 510l-23 -112h-112l23 112h112zM34 0l23 112h112l-23 -112h-112z" />
    <glyph glyph-name="semicolon" unicode=";" horiz-adv-x="278" 
d="M-56 -133l113 245h120l-139 -245h-94zM251 510l-23 -112h-112l23 112h112z" />
    <glyph glyph-name="less" unicode="&#x3c;" horiz-adv-x="600" 
d="M569 514v-88l-394 -173l394 -173v-88l-508 223v76z" />
    <glyph glyph-name="equal" unicode="=" horiz-adv-x="600" 
d="M62 314v88h506v-88h-506zM62 104v88h506v-88h-506z" />
    <glyph glyph-name="greater" unicode="&#x3e;" horiz-adv-x="600" 
d="M61 -8v88l394 173l-394 173v88l508 -223v-76z" />
    <glyph glyph-name="question" unicode="?" horiz-adv-x="500" 
d="M152 593l11 93c51 14 104 24 157 24c100 0 201 -37 201 -163c0 -104 -70 -146 -141 -206c-78 -66 -82 -89 -92 -145h-94c28 118 34 138 136 214c43 32 85 70 85 128c0 71 -63 84 -121 84c-49 0 -96 -14 -142 -29zM147 0l23 112h112l-23 -112h-112z" />
    <glyph glyph-name="at" unicode="@" horiz-adv-x="800" 
d="M391 217c74 0 128 93 128 163c0 48 -34 84 -77 84c-79 0 -133 -87 -133 -156c0 -53 31 -91 82 -91zM640 532l-67 -254c-4 -14 -8 -30 -8 -42c1 -15 4 -25 18 -25c58 0 122 85 122 187c0 156 -119 242 -265 242c-169 0 -283 -129 -283 -293c0 -190 124 -289 293 -289
c84 0 165 34 217 89h76c-65 -100 -176 -159 -297 -159c-206 0 -371 132 -371 361c0 218 166 361 366 361c176 0 334 -120 334 -297c0 -190 -161 -278 -237 -278c-30 0 -56 19 -58 56h-2c-27 -28 -68 -56 -109 -56c-83 0 -148 73 -148 160c0 125 85 251 215 251
c46 0 85 -19 114 -66l15 52h75z" />
    <glyph glyph-name="A" unicode="A" horiz-adv-x="722" 
d="M520 258l-66 332l-211 -332h277zM-31 0l453 698h99l154 -698h-103l-37 176h-343l-112 -176h-111z" />
    <glyph glyph-name="B" unicode="B" horiz-adv-x="611" 
d="M279 616l-47 -216h91c73 0 164 32 163 123c-1 81 -73 93 -141 93h-66zM46 0l151 698h186c118 0 203 -44 203 -163c0 -97 -65 -154 -143 -174v-2c78 -28 109 -67 109 -143c0 -98 -73 -216 -286 -216h-220zM215 318l-51 -236h94c95 0 189 27 188 138c-1 78 -70 98 -140 98
h-91z" />
    <glyph glyph-name="C" unicode="C" horiz-adv-x="611" 
d="M543 100l-13 -93c-41 -13 -85 -19 -128 -19c-186 0 -328 98 -328 319c0 171 118 403 419 403c56 0 114 -11 166 -32l-29 -86c-42 18 -88 30 -135 30c-212 0 -315 -156 -315 -320c0 -153 102 -226 238 -226c42 0 86 8 125 24z" />
    <glyph glyph-name="D" unicode="D" horiz-adv-x="722" 
d="M42 0l148 698h154c246 0 351 -125 351 -282c0 -248 -153 -416 -445 -416h-208zM273 610l-111 -522h106c198 0 321 128 321 317c0 120 -55 205 -258 205h-58z" />
    <glyph glyph-name="E" unicode="E" 
d="M42 0l153 698h379l-20 -88h-276l-45 -204h259l-17 -88h-262l-51 -230h293l-19 -88h-394z" />
    <glyph glyph-name="F" unicode="F" horiz-adv-x="500" 
d="M38 0l152 698h366l-17 -88h-267l-44 -204h246l-19 -88h-246l-69 -318h-102z" />
    <glyph glyph-name="G" unicode="G" horiz-adv-x="722" 
d="M707 670l-30 -86c-42 20 -104 38 -182 38c-212 0 -315 -156 -315 -320c0 -153 102 -226 238 -226c21 0 62 2 83 9l46 215h-146l20 82h243l-81 -373c-46 -10 -98 -21 -181 -21c-186 0 -328 98 -328 319c0 171 118 403 419 403c104 0 167 -21 214 -40z" />
    <glyph glyph-name="H" unicode="H" horiz-adv-x="722" 
d="M46 0l147 698h101l-61 -292h332l63 292h98l-147 -698h-102l69 318h-331l-67 -318h-102z" />
    <glyph glyph-name="I" unicode="I" horiz-adv-x="278" 
d="M38 0l150 698h101l-150 -698h-101z" />
    <glyph glyph-name="J" unicode="J" horiz-adv-x="389" 
d="M398 698l-117 -530c-29 -131 -88 -180 -223 -180c-24 0 -63 9 -86 17l18 91c21 -13 43 -20 76 -20c88 0 111 69 126 139l107 483h99z" />
    <glyph glyph-name="K" unicode="K" horiz-adv-x="667" 
d="M52 0l151 698h100l-68 -307l2 -2l335 309h132l-376 -344l277 -354h-126l-256 334l-70 -334h-101z" />
    <glyph glyph-name="L" unicode="L" horiz-adv-x="500" 
d="M38 0l151 698h101l-132 -610h290l-18 -88h-392z" />
    <glyph glyph-name="M" unicode="M" horiz-adv-x="944" 
d="M42 0l160 698h150l95 -571l340 571h164l-149 -698h-100l128 598h-2l-359 -598h-97l-97 598h-2l-134 -598h-97z" />
    <glyph glyph-name="N" unicode="N" horiz-adv-x="722" 
d="M42 0l145 698h132l197 -585h2l124 585h95l-152 -698h-129l-197 580h-2l-119 -580h-96z" />
    <glyph glyph-name="O" unicode="O" horiz-adv-x="778" 
d="M74 284c0 198 138 426 394 426c178 0 283 -105 283 -283c0 -221 -131 -439 -384 -439c-192 0 -293 103 -293 296zM180 281c0 -124 65 -205 191 -205c172 0 274 185 274 337c0 134 -60 209 -180 209c-171 0 -285 -163 -285 -341z" />
    <glyph glyph-name="P" unicode="P" 
d="M38 0l152 698h174c104 0 224 -43 224 -182c0 -138 -101 -237 -289 -237h-100l-61 -279h-100zM272 610l-53 -243h53c103 0 210 21 210 134c0 97 -74 109 -158 109h-52z" />
    <glyph glyph-name="Q" unicode="Q" horiz-adv-x="778" 
d="M180 281c0 -124 65 -205 191 -205c172 0 274 185 274 337c0 134 -60 209 -180 209c-171 0 -285 -163 -285 -341zM486 -129l-93 119c-8 -2 -17 -2 -26 -2c-192 0 -293 103 -293 296c0 198 138 426 394 426c178 0 283 -105 283 -283c0 -182 -89 -362 -262 -419l124 -137
h-127z" />
    <glyph glyph-name="R" unicode="R" horiz-adv-x="611" 
d="M42 0l149 698h137c98 0 261 0 261 -170c0 -96 -77 -175 -170 -189c53 -33 68 -138 82 -192l38 -147h-106l-42 183c-26 112 -43 127 -95 127h-89l-65 -310h-100zM272 610l-45 -212h79c71 0 177 23 177 116c0 73 -41 96 -118 96h-93z" />
    <glyph glyph-name="S" unicode="S" horiz-adv-x="500" 
d="M508 677l-28 -89c-33 20 -74 34 -127 34c-66 0 -138 -26 -138 -109c0 -117 238 -118 238 -301c0 -105 -73 -224 -241 -224c-81 0 -139 18 -195 40l32 92c41 -26 98 -44 147 -44c106 0 151 66 151 124c0 142 -238 117 -238 311c0 127 116 199 231 199
c58 0 115 -11 168 -33z" />
    <glyph glyph-name="T" unicode="T" 
d="M646 698l-19 -88h-217l-131 -610h-101l131 610h-217l19 88h535z" />
    <glyph glyph-name="U" unicode="U" horiz-adv-x="722" 
d="M736 698l-90 -410c-47 -212 -146 -300 -306 -300c-194 0 -246 136 -246 211c0 48 15 112 24 156l74 343h100l-90 -421c-5 -25 -8 -47 -8 -62c0 -91 65 -139 152 -139c148 0 188 151 213 268l77 354h100z" />
    <glyph glyph-name="V" unicode="V" horiz-adv-x="667" 
d="M760 698l-419 -698h-120l-113 698h100l88 -598h2l352 598h110z" />
    <glyph glyph-name="W" unicode="W" horiz-adv-x="1000" 
d="M169 0l-57 698h100l38 -597h2l278 597h132l18 -598h2l302 598h107l-365 -698h-130l-15 604h-2l-278 -604h-132z" />
    <glyph glyph-name="X" unicode="X" horiz-adv-x="667" 
d="M299 373l-170 325h108l138 -267l234 267h127l-308 -338l184 -360h-111l-148 302l-265 -302h-124z" />
    <glyph glyph-name="Y" unicode="Y" horiz-adv-x="667" 
d="M233 0l60 292l-187 406h110l139 -316l275 316h127l-366 -406l-60 -292h-98z" />
    <glyph glyph-name="Z" unicode="Z" 
d="M-13 0l16 88l460 522h-343l18 88h465l-16 -89l-460 -521h361l-17 -88h-484z" />
    <glyph glyph-name="bracketleft" unicode="[" horiz-adv-x="333" 
d="M19 -140l194 896h192l-16 -70h-99l-164 -756h100l-14 -70h-193z" />
    <glyph glyph-name="backslash" unicode="\" horiz-adv-x="278" 
d="M240 -12l-240 722h88l240 -722h-88z" />
    <glyph glyph-name="bracketright" unicode="]" horiz-adv-x="333" 
d="M348 756l-194 -896h-192l16 70h99l164 756h-100l14 70h193z" />
    <glyph glyph-name="asciicircum" unicode="^" horiz-adv-x="600" 
d="M80 294l199 404h82l199 -404h-88l-152 312l-152 -312h-88z" />
    <glyph glyph-name="underscore" unicode="_" horiz-adv-x="500" 
d="M0 -75h500v-50h-500v50z" />
    <glyph glyph-name="quoteleft" unicode="&#x2018;" horiz-adv-x="278" 
d="M324 698l-115 -245h-119l138 245h96z" />
    <glyph glyph-name="a" unicode="a" 
d="M128 403l17 93c45 15 105 26 142 26c103 0 202 -40 202 -162c0 -23 -4 -56 -9 -80c-19 -95 -40 -190 -53 -280h-87l17 85h-2c-32 -61 -98 -97 -166 -97c-86 0 -163 45 -163 141c0 145 131 186 302 186c20 0 45 -2 68 -3c2 10 5 21 5 33c0 73 -48 101 -117 101
c-55 0 -114 -18 -156 -43zM376 245h-72c-71 0 -178 -19 -178 -112c0 -45 39 -69 84 -69c95 0 155 95 166 181z" />
    <glyph glyph-name="b" unicode="b" horiz-adv-x="611" 
d="M174 198c0 -69 41 -134 127 -134c107 0 170 129 170 256c0 86 -49 126 -114 126c-110 0 -183 -122 -183 -248zM35 0l159 750h94l-63 -295h2c32 43 91 67 162 67c115 0 182 -84 182 -194c0 -187 -87 -340 -257 -340c-109 0 -145 42 -172 97h-2l-17 -85h-88z" />
    <glyph glyph-name="c" unicode="c" horiz-adv-x="444" 
d="M457 502l-23 -81c-33 18 -65 25 -91 25c-121 0 -196 -107 -196 -231c0 -95 48 -151 138 -151c32 0 73 11 103 23l-17 -87c-31 -9 -65 -12 -98 -12c-135 0 -226 72 -226 213c0 173 101 321 278 321c54 0 94 -7 132 -20z" />
    <glyph glyph-name="d" unicode="d" horiz-adv-x="611" 
d="M638 750l-126 -581c-12 -57 -22 -113 -29 -169h-88c5 24 9 52 17 78h-2c-35 -68 -97 -90 -174 -90c-123 0 -189 98 -189 214c0 160 90 320 264 320c69 0 135 -30 164 -96h2l67 324h94zM147 209c0 -81 38 -145 124 -145c118 0 172 147 172 243c0 76 -45 139 -127 139
c-111 0 -169 -141 -169 -237z" />
    <glyph glyph-name="e" unicode="e" 
d="M160 304h261c2 15 3 27 3 39c0 60 -37 103 -108 103c-77 0 -136 -67 -156 -142zM448 95l-15 -86c-49 -12 -100 -21 -151 -21c-124 0 -235 50 -235 230c0 141 99 304 279 304c123 0 192 -74 192 -195c0 -34 -4 -63 -9 -93h-359c-2 -11 -3 -21 -3 -32
c0 -107 66 -138 157 -138c47 0 98 12 144 31z" />
    <glyph glyph-name="f" unicode="f" horiz-adv-x="389" 
d="M88 0l94 434h-122l14 76h124l12 50c19 85 56 202 203 202c23 0 48 -4 72 -11l-19 -75c-10 5 -35 10 -45 10c-83 0 -105 -68 -118 -129l-10 -47h135l-15 -76h-137l-94 -434h-94z" />
    <glyph glyph-name="g" unicode="g" horiz-adv-x="611" 
d="M498 510h87l-117 -547c-22 -101 -117 -185 -274 -185c-32 0 -115 9 -171 37l21 84c47 -25 109 -45 163 -45c108 0 159 70 178 149l13 55h-2c-31 -37 -70 -58 -152 -58c-90 0 -190 71 -190 204c0 188 110 320 257 318c69 0 138 -30 167 -102h2zM154 209
c0 -67 36 -133 114 -133c82 0 175 64 175 231c0 76 -45 139 -127 139c-109 0 -162 -139 -162 -237z" />
    <glyph glyph-name="h" unicode="h" horiz-adv-x="611" 
d="M35 0l157 750h94l-63 -304h2c35 51 97 76 161 76c99 0 170 -52 170 -160c0 -30 -6 -64 -12 -93l-56 -269h-94l63 305c3 17 5 37 5 48c0 53 -35 93 -93 93c-116 0 -173 -126 -186 -189l-54 -257h-94z" />
    <glyph glyph-name="i" unicode="i" horiz-adv-x="278" 
d="M41 0l108 510h94l-108 -510h-94zM296 730l-22 -106h-106l22 106h106z" />
    <glyph glyph-name="j" unicode="j" horiz-adv-x="278" 
d="M-110 -204l17 74c13 -6 28 -10 42 -10c49 0 68 30 85 109l115 541h94l-120 -566c-15 -72 -41 -166 -162 -166c-17 0 -57 10 -71 18zM296 730l-22 -106h-106l22 106h106z" />
    <glyph glyph-name="k" unicode="k" 
d="M35 0l159 750h94l-95 -440h2l237 200h138l-289 -226l208 -284h-120l-185 262l-55 -262h-94z" />
    <glyph glyph-name="l" unicode="l" horiz-adv-x="278" 
d="M41 0l159 750h94l-159 -750h-94z" />
    <glyph glyph-name="m" unicode="m" horiz-adv-x="889" 
d="M35 0l94 452c4 18 6 36 10 58h88l-12 -70h2c36 54 95 82 162 82c60 0 118 -28 135 -89c50 58 103 89 181 89c83 0 142 -55 142 -133c0 -31 -7 -71 -15 -107l-59 -282h-94l68 323c4 20 6 37 6 48c0 42 -27 75 -75 75c-95 0 -148 -111 -165 -190l-57 -256h-94l68 323
c4 20 6 37 6 48c0 42 -27 75 -75 75c-95 0 -148 -111 -165 -190l-57 -256h-94z" />
    <glyph glyph-name="n" unicode="n" horiz-adv-x="611" 
d="M35 0l89 432c4 21 10 48 14 78h88l-16 -81h2c30 48 85 93 174 93c99 0 170 -52 170 -160c0 -30 -6 -64 -12 -93l-56 -269h-94l63 305c3 17 5 37 5 48c0 53 -35 93 -93 93c-116 0 -173 -126 -186 -189l-54 -257h-94z" />
    <glyph glyph-name="o" unicode="o" horiz-adv-x="611" 
d="M47 215c0 170 104 307 291 307c137 0 226 -83 226 -223c0 -173 -102 -311 -285 -311c-140 0 -232 76 -232 227zM147 208c0 -81 42 -144 131 -144c106 0 186 120 186 235c0 76 -45 147 -130 147c-125 0 -187 -132 -187 -238z" />
    <glyph glyph-name="p" unicode="p" horiz-adv-x="611" 
d="M-16 -210l117 551c10 57 20 113 27 169h88l-17 -78h2c37 64 110 90 181 90c115 0 182 -84 182 -194c0 -187 -87 -340 -257 -340c-89 0 -142 30 -166 88h-2l-61 -286h-94zM167 198c0 -69 41 -134 127 -134c107 0 170 129 170 256c0 86 -49 126 -114 126
c-110 0 -183 -122 -183 -248z" />
    <glyph glyph-name="q" unicode="q" horiz-adv-x="611" 
d="M585 510l-153 -720h-93l55 261h-2c-34 -46 -89 -63 -156 -63c-123 0 -189 98 -189 214c0 160 90 320 264 320c69 0 138 -30 167 -102h2l18 90h87zM147 209c0 -81 38 -145 124 -145c118 0 172 147 172 243c0 76 -45 139 -127 139c-111 0 -169 -141 -169 -237z" />
    <glyph glyph-name="r" unicode="r" horiz-adv-x="389" 
d="M35 0l89 432c4 21 10 48 14 78h88l-16 -81h2c30 48 85 93 174 93c9 0 25 -2 43 -9l-21 -83c-18 7 -33 10 -40 10c-116 0 -173 -126 -186 -189l-53 -251h-94z" />
    <glyph glyph-name="s" unicode="s" horiz-adv-x="389" 
d="M389 494l-28 -74c-26 13 -67 26 -102 26c-41 0 -95 -11 -95 -62c0 -87 174 -91 174 -233c0 -123 -113 -163 -193 -163c-81 0 -111 11 -149 24l18 81c37 -15 76 -29 117 -29c51 0 107 21 107 79c0 87 -174 100 -174 229c0 108 108 150 192 150c45 0 91 -11 133 -28z" />
    <glyph glyph-name="t" unicode="t" horiz-adv-x="389" 
d="M60 434l14 76h114l25 118l101 35l-32 -153h140l-15 -76h-141l-47 -219c-5 -23 -15 -78 -15 -96c0 -36 20 -55 68 -55c20 0 48 5 66 13l-14 -78c-21 -8 -65 -11 -92 -11c-89 0 -122 59 -122 113c0 33 12 92 18 120l44 213h-112z" />
    <glyph glyph-name="u" unicode="u" horiz-adv-x="611" 
d="M584 510l-89 -432c-4 -21 -10 -48 -14 -78h-88l16 81h-2c-30 -48 -85 -93 -174 -93c-99 0 -170 52 -170 160c0 30 6 64 12 93l56 269h94l-63 -305c-3 -17 -5 -37 -5 -48c0 -53 35 -93 93 -93c116 0 173 126 186 189l54 257h94z" />
    <glyph glyph-name="v" unicode="v" horiz-adv-x="500" 
d="M149 0l-80 510h100l52 -412h2l227 412h100l-291 -510h-110z" />
    <glyph glyph-name="w" unicode="w" horiz-adv-x="833" 
d="M125 0l-56 510h94l35 -410h2l218 410h114l35 -410h2l212 410h104l-279 -510h-108l-40 410h-2l-220 -410h-111z" />
    <glyph glyph-name="x" unicode="x" horiz-adv-x="500" 
d="M-42 0l236 269l-108 241h103l76 -184l153 184h114l-217 -245l124 -265h-106l-88 200l-170 -200h-117z" />
    <glyph glyph-name="y" unicode="y" horiz-adv-x="500" 
d="M-38 -215l16 78c7 -4 24 -9 41 -9c57 1 96 39 135 118l-82 538h98l59 -407h2l222 407h101l-348 -606c-45 -78 -79 -126 -173 -126c-23 0 -47 2 -71 7z" />
    <glyph glyph-name="z" unicode="z" horiz-adv-x="500" 
d="M-6 0l16 82l363 352h-283l15 76h404l-19 -82l-366 -352h302l-17 -76h-415z" />
    <glyph glyph-name="braceleft" unicode="{" horiz-adv-x="333" 
d="M420 756l-15 -70h-51c-41 0 -57 -27 -67 -73l-39 -182c-20 -91 -92 -119 -119 -122v-2c21 -4 69 -22 69 -89c0 -10 -1 -22 -4 -34l-38 -181c-2 -10 -4 -20 -4 -34c0 -21 7 -39 36 -39h51l-14 -70h-78c-42 0 -89 33 -89 98c0 9 1 19 3 28l40 184c2 10 3 20 3 28
c0 51 -32 75 -67 75l15 70c41 4 96 41 109 102l40 185c20 93 77 126 141 126h78z" />
    <glyph glyph-name="bar" unicode="|" horiz-adv-x="222" 
d="M92 750h88v-1000h-88v1000z" />
    <glyph glyph-name="braceright" unicode="}" horiz-adv-x="333" 
d="M-86 -140l15 70h51c41 0 57 27 67 73l39 182c20 91 92 119 119 122v2c-21 4 -69 22 -69 89c0 10 1 22 4 34l38 181c2 10 4 20 4 34c0 21 -7 39 -36 39h-51l14 70h78c42 0 89 -33 89 -98c0 -9 -1 -19 -3 -28l-40 -184c-2 -10 -3 -20 -3 -28c0 -51 32 -75 67 -75l-15 -70
c-41 -4 -96 -41 -109 -102l-40 -185c-20 -93 -77 -126 -141 -126h-78z" />
    <glyph glyph-name="asciitilde" unicode="~" horiz-adv-x="600" 
d="M510 333l36 -70c-30 -42 -63 -86 -125 -86c-37 0 -69 15 -102 33c-32 18 -69 36 -115 36c-44 0 -68 -38 -84 -73l-36 70c22 42 58 85 125 85c34 0 73 -14 111 -31c37 -16 75 -38 102 -38c40 0 65 39 88 74z" />
    <glyph glyph-name="exclamdown" unicode="&#xa1;" horiz-adv-x="389" 
d="M249 314l-97 -502h-118l124 502h91zM300 510l-23 -112h-112l23 112h112z" />
    <glyph glyph-name="cent" unicode="&#xa2;" 
d="M234 89l112 352c-102 -17 -164 -113 -164 -226c0 -58 18 -102 52 -126zM164 -133l44 138c-78 28 -126 94 -126 196c0 173 101 321 278 321h11l36 112h56l-37 -117c24 -3 45 -8 66 -15l-23 -81c-24 13 -47 18 -66 20l-119 -373c11 -3 23 -4 36 -4c32 0 73 11 103 23
l-17 -87c-31 -9 -65 -12 -98 -12c-16 0 -32 1 -48 4l-40 -125h-56z" />
    <glyph glyph-name="sterling" unicode="&#xa3;" 
d="M9 0l17 88h95l56 260h-85l12 58h85l11 47c31 140 83 257 256 257c47 0 99 -8 141 -29l-24 -83c-32 13 -66 24 -101 24c-116 0 -151 -75 -174 -178l-9 -38h162l-10 -58h-164l-56 -260h249l-17 -88h-444z" />
    <glyph glyph-name="fraction" unicode="&#x2044;" horiz-adv-x="167" 
d="M-169 -22l435 742h70l-435 -742h-70z" />
    <glyph glyph-name="yen" unicode="&#xa5;" 
d="M181 0l32 162h-139l11 58h139l14 72l-6 16h-129l11 58h97l-120 332h104l102 -316l232 316h100l-243 -332h107l-11 -58h-139l-12 -16l-14 -72h147l-11 -58h-147l-32 -162h-93z" />
    <glyph glyph-name="florin" unicode="&#x192;" 
d="M137 344l12 70h112l14 63c20 91 49 233 176 233c34 0 66 -5 91 -15l-20 -89c-15 12 -34 22 -59 22c-59 0 -71 -67 -80 -110l-22 -104h116l-12 -70h-116l-66 -348c-28 -146 -55 -218 -189 -218c-26 0 -54 4 -78 15l16 87c18 -12 40 -20 62 -20c52 0 61 20 75 88l80 396
h-112z" />
    <glyph glyph-name="section" unicode="&#xa7;" 
d="M530 678l-27 -82c-45 23 -87 32 -138 32s-127 -15 -127 -72c0 -104 261 -95 261 -254c0 -72 -56 -114 -114 -146c33 -22 55 -49 55 -102c0 -90 -70 -178 -239 -178c-63 0 -128 8 -186 34l27 83c50 -19 99 -35 153 -35c68 0 151 17 151 91c0 101 -256 84 -256 236
c0 75 57 118 115 156c-37 27 -61 60 -61 107c0 74 56 162 222 162c55 0 113 -10 164 -32zM311 379l-52 26c-32 -26 -81 -56 -81 -103c0 -36 61 -67 87 -79l67 -31c33 22 79 49 79 94c0 43 -44 68 -100 93z" />
    <glyph glyph-name="currency" unicode="&#xa4;" 
d="M44 146l56 57c-33 39 -50 90 -50 146c0 54 15 110 50 148l-56 54l51 52l55 -55c38 31 95 49 148 49c56 0 110 -18 150 -49l54 55l50 -52l-54 -54c32 -36 48 -92 48 -148c0 -54 -16 -108 -48 -146l54 -57l-50 -51l-54 57c-38 -33 -93 -51 -150 -51c-56 0 -110 17 -148 51
l-55 -57zM138 349c0 -92 72 -166 160 -166c92 0 160 78 160 166s-69 166 -160 166c-89 0 -160 -75 -160 -166z" />
    <glyph glyph-name="quotesingle" unicode="'" horiz-adv-x="278" 
d="M135 453v245h88v-245h-88z" />
    <glyph glyph-name="quotedblleft" unicode="&#x201c;" 
d="M561 698l-115 -245h-119l138 245h96zM365 698l-115 -245h-119l138 245h96z" />
    <glyph glyph-name="guillemotleft" unicode="&#xab;" 
d="M391 67l-148 202l183 202h104l-188 -202l146 -202h-97zM192 67l-148 202l183 202h104l-188 -202l146 -202h-97z" />
    <glyph glyph-name="guilsinglleft" unicode="&#x2039;" horiz-adv-x="333" 
d="M179 67l-148 202l183 202h104l-188 -202l146 -202h-97z" />
    <glyph glyph-name="guilsinglright" unicode="&#x203a;" horiz-adv-x="333" 
d="M170 471l148 -202l-183 -202h-104l188 202l-146 202h97z" />
    <glyph glyph-name="fi" unicode="&#xfb01;" horiz-adv-x="667" 
d="M428 0l108 510h94l-108 -510h-94zM685 730l-22 -106h-106l22 106h106zM88 0l94 434h-122l14 76h124l12 50c19 85 56 202 203 202c23 0 48 -4 72 -11l-19 -75c-10 5 -35 10 -45 10c-83 0 -105 -68 -118 -129l-10 -47h135l-15 -76h-137l-94 -434h-94z" />
    <glyph glyph-name="fl" unicode="&#xfb02;" horiz-adv-x="667" 
d="M88 0l94 434h-122l14 76h124l12 50c19 85 56 202 203 202c23 0 48 -4 72 -11l-19 -75c-10 5 -35 10 -45 10c-83 0 -105 -68 -118 -129l-10 -47h135l-15 -76h-137l-94 -434h-94zM430 0l159 750h94l-159 -750h-94z" />
    <glyph glyph-name="endash" unicode="&#x2013;" horiz-adv-x="500" 
d="M-1 234l15 70h500l-15 -70h-500z" />
    <glyph glyph-name="dagger" unicode="&#x2020;" 
d="M294 523l38 175h88l-38 -175h174l-15 -70h-174l-97 -453h-88l97 453h-174l15 70h174z" />
    <glyph glyph-name="daggerdbl" unicode="&#x2021;" 
d="M297 536l35 162h88l-35 -162h174l-15 -70h-174l-50 -234h173l-15 -70h-173l-35 -162h-88l35 162h-174l15 70h174l50 234h-173l15 70h173z" />
    <glyph glyph-name="periodcentered" unicode="&#xb7;" horiz-adv-x="278" 
d="M96 303c0 33 26 59 59 59s59 -26 59 -59s-26 -59 -59 -59s-59 26 -59 59z" />
    <glyph glyph-name="paragraph" unicode="&#xb6;" horiz-adv-x="600" 
d="M173 -112l93 445c-118 0 -184 58 -183 143c0 158 139 222 279 222h271l-169 -810h-89l154 740h-115l-154 -740h-87z" />
    <glyph glyph-name="bullet" unicode="&#x2022;" horiz-adv-x="500" 
d="M96 349c0 96 78 174 174 174s175 -78 175 -174s-79 -175 -175 -175s-174 79 -174 175z" />
    <glyph glyph-name="quotesinglbase" unicode="&#x201a;" horiz-adv-x="278" 
d="M-56 -133l115 245h119l-138 -245h-96z" />
    <glyph glyph-name="quotedblbase" unicode="&#x201e;" 
d="M5 -133l115 245h119l-138 -245h-96zM201 -133l115 245h119l-138 -245h-96z" />
    <glyph glyph-name="quotedblright" unicode="&#x201d;" 
d="M131 453l115 245h119l-138 -245h-96zM327 453l115 245h119l-138 -245h-96z" />
    <glyph glyph-name="guillemotright" unicode="&#xbb;" 
d="M183 471l148 -202l-183 -202h-104l188 202l-146 202h97zM382 471l148 -202l-183 -202h-104l188 202l-146 202h97z" />
    <glyph glyph-name="ellipsis" unicode="&#x2026;" horiz-adv-x="1000" 
d="M71 0l23 112h112l-23 -112h-112zM404 0l23 112h112l-23 -112h-112zM737 0l23 112h112l-23 -112h-112z" />
    <glyph glyph-name="perthousand" unicode="&#x2030;" horiz-adv-x="1000" 
d="M757 115c0 -40 13 -63 54 -63c60 0 76 87 76 132c0 38 -12 66 -53 66c-64 0 -77 -87 -77 -135zM675 117c0 89 49 197 170 197c82 0 124 -46 124 -134c0 -104 -56 -192 -166 -192c-80 0 -128 54 -128 129zM338 117c0 104 60 197 170 197c86 0 124 -51 124 -134
c0 -103 -55 -192 -166 -192c-78 0 -128 52 -128 129zM420 115c0 -40 13 -63 54 -63c60 0 76 87 76 132c0 38 -12 66 -53 66c-64 0 -77 -87 -77 -135zM69 513c0 89 49 197 170 197c82 0 124 -46 124 -134c0 -104 -56 -192 -166 -192c-80 0 -128 54 -128 129zM151 511
c0 -40 13 -63 54 -63c60 0 76 87 76 132c0 38 -12 66 -53 66c-64 0 -77 -87 -77 -135zM62 -22l510 742h70l-510 -742h-70z" />
    <glyph glyph-name="questiondown" unicode="&#xbf;" horiz-adv-x="500" 
d="M348 -83l-11 -93c-51 -14 -104 -24 -157 -24c-100 0 -201 37 -201 163c0 104 70 146 141 206c78 66 82 89 92 145h94c-28 -118 -34 -138 -136 -214c-43 -32 -85 -70 -85 -128c0 -71 63 -84 121 -84c49 0 96 14 142 29zM353 510l-23 -112h-112l23 112h112z" />
    <glyph glyph-name="grave" unicode="`" horiz-adv-x="278" 
d="M205 725l67 -144h-67l-101 144h101z" />
    <glyph glyph-name="acute" unicode="&#xb4;" horiz-adv-x="278" 
d="M164 581l94 144h112l-135 -144h-71z" />
    <glyph glyph-name="circumflex" unicode="&#x2c6;" horiz-adv-x="278" 
d="M58 581l133 144h86l75 -144h-74l-51 98l-87 -98h-82z" />
    <glyph glyph-name="tilde" unicode="&#x2dc;" horiz-adv-x="278" 
d="M97 586h-46c6 43 26 112 94 112c52 0 112 -47 154 -46c30 -2 43 23 46 46h46c-6 -43 -26 -112 -94 -112c-52 0 -112 47 -154 46c-30 2 -43 -23 -46 -46z" />
    <glyph glyph-name="macron" unicode="&#xaf;" horiz-adv-x="278" 
d="M81 615l12 58h269l-11 -58h-270z" />
    <glyph glyph-name="breve" unicode="&#x2d8;" horiz-adv-x="278" 
d="M82 722h46c0 -54 37 -78 93 -78c61 0 99 25 115 78h46c-15 -88 -76 -136 -166 -136c-87 0 -139 47 -134 136z" />
    <glyph glyph-name="dotaccent" unicode="&#x2d9;" horiz-adv-x="278" 
d="M255 588h-88l21 100h88z" />
    <glyph glyph-name="dieresis" unicode="&#xa8;" horiz-adv-x="278" 
d="M337 588h-88l21 100h88zM172 588h-88l21 100h88z" />
    <glyph glyph-name="ring" unicode="&#x2da;" horiz-adv-x="278" 
d="M322 665c0 -56 -45 -102 -101 -102s-100 46 -100 102c0 57 44 102 100 102s101 -45 101 -102zM282 665c0 33 -29 62 -61 62s-60 -27 -60 -62c0 -34 28 -62 60 -62s61 30 61 62z" />
    <glyph glyph-name="cedilla" unicode="&#xb8;" horiz-adv-x="278" 
d="M146 0h42l-54 -61l2 -2c7 2 18 4 27 4c44 0 92 -21 92 -76c0 -61 -69 -87 -121 -87c-34 0 -66 7 -97 22l16 36c21 -7 43 -18 65 -18c34 0 61 9 61 45c0 24 -21 38 -46 38c-14 0 -29 -4 -42 -10l-17 24z" />
    <glyph glyph-name="hungarumlaut" unicode="&#x2dd;" horiz-adv-x="278" 
d="M81 581l94 144h112l-135 -144h-71zM247 581l94 144h112l-135 -144h-71z" />
    <glyph glyph-name="ogonek" unicode="&#x2db;" horiz-adv-x="278" 
d="M132 0h43c-81 -56 -111 -91 -111 -128c0 -27 14 -42 38 -42c17 0 47 16 60 34l21 -17c-44 -46 -74 -57 -123 -57c-31 0 -72 8 -72 55c0 74 87 127 144 155z" />
    <glyph glyph-name="caron" unicode="&#x2c7;" horiz-adv-x="278" 
d="M391 725l-133 -144h-86l-75 144h74l51 -98l87 98h82z" />
    <glyph glyph-name="emdash" unicode="&#x2014;" horiz-adv-x="1000" 
d="M-1 234l15 70h1000l-15 -70h-1000z" />
    <glyph glyph-name="AE" unicode="&#xc6;" horiz-adv-x="944" 
d="M-36 0l561 698h437l-15 -88h-264l-39 -204h241l-17 -88h-241l-44 -230h264l-16 -88h-367l34 176h-270l-141 -176h-123zM514 258l70 358h-2l-288 -358h220z" />
    <glyph glyph-name="ordfeminine" unicode="&#xaa;" horiz-adv-x="361" 
d="M136 621l11 74c42 8 85 15 128 15c62 0 137 -22 137 -97c0 -14 -3 -39 -7 -60c-10 -47 -24 -104 -33 -157h-80l11 50h-2c-21 -39 -65 -58 -108 -58c-56 0 -129 18 -129 87c0 102 122 118 200 118h57c1 6 3 12 3 20c0 26 -36 33 -69 33c-29 0 -81 -11 -119 -25zM315 535
h-47c-38 0 -116 -7 -116 -52c0 -27 37 -31 55 -31c53 0 100 33 108 83z" />
    <glyph glyph-name="Lslash" unicode="&#x141;" horiz-adv-x="500" 
d="M38 0l51 236l-74 -39l15 75l75 40l84 386h101l-71 -327l215 113l-15 -75l-216 -113l-45 -208h290l-18 -88h-392z" />
    <glyph glyph-name="Oslash" unicode="&#xd8;" horiz-adv-x="778" 
d="M221 142l338 458c-26 15 -57 22 -94 22c-171 0 -285 -163 -285 -341c0 -57 14 -105 41 -139zM605 560l-338 -459c26 -16 62 -25 104 -25c172 0 274 185 274 337c0 63 -13 112 -40 147zM81 -48l77 104c-55 48 -84 126 -84 228c0 198 138 426 394 426c58 0 108 -11 148 -33
l69 93l50 -35l-68 -92c54 -47 84 -121 84 -216c0 -221 -131 -439 -384 -439c-63 0 -116 11 -159 33l-77 -104z" />
    <glyph glyph-name="OE" unicode="&#x152;" horiz-adv-x="944" 
d="M468 88l112 522c-28 4 -56 6 -83 6c-181 0 -317 -130 -317 -304c0 -132 75 -230 223 -230c21 0 45 3 65 6zM962 698l-18 -88h-265l-44 -204h249l-16 -88h-252l-50 -230h281l-16 -88h-252c-35 0 -69 -1 -101 -3c-32 -1 -63 -3 -94 -3c-189 0 -310 135 -310 299
c0 277 207 411 431 411c37 0 75 -1 113 -3c38 -1 77 -3 113 -3h231z" />
    <glyph glyph-name="ordmasculine" unicode="&#xba;" horiz-adv-x="397" 
d="M242 388c-97 0 -156 46 -156 137c0 103 67 185 195 185c95 0 153 -50 153 -135c0 -104 -67 -187 -192 -187zM346 562c0 47 -22 84 -71 84c-65 0 -100 -49 -101 -119c0 -37 27 -75 72 -75c55 0 100 43 100 110z" />
    <glyph glyph-name="ae" unicode="&#xe6;" horiz-adv-x="889" 
d="M129 406l18 91c49 15 102 25 154 25c67 0 151 -15 182 -88c34 48 92 88 188 88c123 0 192 -74 192 -195c0 -34 -4 -63 -9 -93h-351c-3 -13 -3 -25 -3 -37c1 -86 75 -133 159 -133c46 0 92 12 134 30l-13 -84c-30 -11 -83 -22 -124 -22c-126 0 -182 26 -232 113
c-41 -71 -128 -113 -213 -113c-108 0 -185 45 -185 141c0 145 131 186 302 186c30 0 57 -2 86 -4c3 11 4 23 4 34c0 66 -49 101 -123 101c-60 0 -114 -17 -166 -40zM398 245h-94c-71 0 -178 -19 -178 -112c0 -45 39 -69 94 -69c109 0 160 89 178 181zM505 304h261
c2 15 3 27 3 39c0 60 -37 103 -108 103c-77 0 -136 -67 -156 -142z" />
    <glyph glyph-name="dotlessi" unicode="&#x131;" horiz-adv-x="278" 
d="M41 0l108 510h94l-108 -510h-94z" />
    <glyph glyph-name="lslash" unicode="&#x142;" horiz-adv-x="278" 
d="M41 0l68 319l-67 -51l17 82l68 51l75 349h94l-56 -264l68 51l-17 -82l-69 -52l-87 -403h-94z" />
    <glyph glyph-name="oslash" unicode="&#xf8;" horiz-adv-x="611" 
d="M167 123l228 308c-18 10 -38 15 -61 15c-125 0 -187 -132 -187 -238c0 -32 7 -62 20 -85zM436 393l-230 -310c19 -12 43 -19 72 -19c106 0 186 120 186 235c0 35 -9 68 -28 94zM47 -39l63 85c-40 37 -63 94 -63 169c0 170 104 307 291 307c41 0 78 -8 108 -23l61 83
l45 -33l-59 -79c45 -37 71 -96 71 -171c0 -173 -102 -311 -285 -311c-47 0 -89 9 -123 27l-64 -87z" />
    <glyph glyph-name="oe" unicode="&#x153;" horiz-adv-x="944" 
d="M41 215c0 170 104 307 291 307c57 0 151 -16 181 -110c35 77 116 110 198 110c123 0 192 -74 192 -195c0 -34 -4 -63 -9 -93h-351c-3 -13 -3 -25 -3 -37c1 -86 75 -133 159 -133c46 0 92 12 134 30l-13 -84c-30 -11 -83 -22 -124 -22c-88 0 -172 22 -218 116
c-49 -83 -140 -116 -205 -116c-140 0 -232 76 -232 227zM272 64c106 0 186 120 186 235c0 76 -45 147 -130 147c-125 0 -187 -132 -187 -238c0 -81 42 -144 131 -144zM545 304h261c2 15 3 27 3 39c0 60 -37 103 -108 103c-77 0 -136 -67 -156 -142z" />
    <glyph glyph-name="germandbls" unicode="&#xdf;" horiz-adv-x="611" 
d="M35 0l104 493c22 106 53 269 248 269c87 0 198 -36 198 -183c0 -89 -66 -169 -155 -183v-2c83 -10 127 -71 127 -152c0 -115 -70 -215 -188 -241c-18 -4 -50 -7 -68 -7c-34 0 -67 4 -100 10l17 77c28 -8 57 -11 86 -11c93 0 153 80 153 171c0 95 -60 116 -151 116l16 76
c87 0 169 51 169 145c0 68 -44 108 -106 108c-106 0 -135 -114 -153 -200l-103 -486h-94z" />
    <glyph glyph-name="onesuperior" unicode="&#xb9;" horiz-adv-x="361" 
d="M145 282l77 346l-74 -45l-35 45l134 76h81l-98 -422h-85z" />
    <glyph glyph-name="logicalnot" unicode="&#xac;" horiz-adv-x="600" 
d="M62 314v88h506v-295h-88v207h-418z" />
    <glyph glyph-name="mu" unicode="&#xb5;" horiz-adv-x="611" 
d="M594 510l-89 -432c-4 -21 -10 -48 -14 -78h-88l16 81h-2c-30 -48 -85 -93 -174 -93c-57 -2 -86 6 -111 23l-45 -221h-94l148 720h94l-63 -305c-3 -17 -5 -37 -5 -48c0 -53 35 -93 93 -93c116 0 173 126 186 189l54 257h94z" />
    <glyph glyph-name="trademark" unicode="&#x2122;" horiz-adv-x="990" 
d="M421 698v-70h-128v-346h-76v346h-128v70h332zM519 282v416h118l109 -281l107 281h118v-416h-76v318h-2l-117 -318h-62l-117 318h-2v-318h-76z" />
    <glyph glyph-name="Eth" unicode="&#xd0;" horiz-adv-x="722" 
d="M42 0l73 342h-75l14 64h74l62 292h154c246 0 351 -125 351 -282c0 -248 -153 -416 -445 -416h-208zM273 610l-43 -204h180l-14 -64h-180l-54 -254h106c198 0 321 128 321 317c0 120 -55 205 -258 205h-58z" />
    <glyph glyph-name="onehalf" unicode="&#xbd;" horiz-adv-x="834" 
d="M171 -22l434 742h71l-435 -742h-70zM125 282l77 346l-74 -45l-35 45l134 76h81l-98 -422h-85zM459 0l14 62c50 41 256 184 256 252c0 38 -33 44 -63 44c-37 0 -74 -10 -106 -20l6 69c40 14 74 21 116 21c68 0 135 -28 135 -102c0 -104 -164 -203 -223 -253v-3h169
l-14 -70h-290z" />
    <glyph glyph-name="plusminus" unicode="&#xb1;" horiz-adv-x="600" 
d="M62 271v88h209v147h88v-147h209v-88h-209v-147h-88v147h-209zM62 0v88h506v-88h-506z" />
    <glyph glyph-name="Thorn" unicode="&#xde;" 
d="M249 508l-53 -243h53c103 0 210 21 210 134c0 97 -74 109 -158 109h-52zM38 0l152 698h100l-22 -102h75c104 0 224 -43 224 -182c0 -138 -101 -237 -289 -237h-101l-39 -177h-100z" />
    <glyph glyph-name="onequarter" unicode="&#xbc;" horiz-adv-x="834" 
d="M664 153l50 211h-2l-190 -211h142zM627 0l20 83h-229l14 70l247 269h134l-66 -269h56l-14 -70h-60l-20 -83h-82zM151 -22l434 742h71l-435 -742h-70zM125 282l77 346l-74 -45l-35 45l134 76h81l-98 -422h-85z" />
    <glyph glyph-name="divide" unicode="&#xf7;" horiz-adv-x="600" 
d="M62 209v88h506v-88h-506zM239 460c0 42 35 77 77 77c40 0 76 -36 76 -77c0 -38 -36 -76 -75 -76c-43 0 -78 35 -78 76zM239 46c0 42 35 76 77 76c40 0 76 -35 76 -76c0 -38 -36 -77 -75 -77c-43 0 -78 36 -78 77z" />
    <glyph glyph-name="brokenbar" unicode="&#xa6;" horiz-adv-x="222" 
d="M92 675h88v-350h-88v350zM92 175h88v-350h-88v350z" />
    <glyph glyph-name="degree" unicode="&#xb0;" horiz-adv-x="400" 
d="M107 567c0 79 64 143 143 143s143 -64 143 -143s-64 -143 -143 -143s-143 64 -143 143zM171 567c0 -44 35 -79 79 -79s79 35 79 79s-35 79 -79 79s-79 -35 -79 -79z" />
    <glyph glyph-name="thorn" unicode="&#xfe;" horiz-adv-x="611" 
d="M-16 -210l203 960h94l-63 -295h2c32 43 91 67 162 67c115 0 182 -84 182 -194c0 -187 -87 -340 -257 -340c-89 0 -142 30 -166 88h-2l-61 -286h-94zM167 198c0 -69 41 -134 127 -134c107 0 170 129 170 256c0 86 -49 126 -114 126c-110 0 -183 -122 -183 -248z" />
    <glyph glyph-name="threequarters" unicode="&#xbe;" horiz-adv-x="834" 
d="M664 153l50 211h-2l-190 -211h142zM627 0l20 83h-229l14 70l247 269h134l-66 -269h56l-14 -70h-60l-20 -83h-82zM191 -22l434 742h71l-435 -742h-70zM137 466l9 70c42 0 150 -1 150 64c0 31 -39 40 -63 40c-37 0 -74 -8 -108 -21l6 76c33 7 66 15 100 15
c66 0 153 -16 153 -100c0 -63 -70 -102 -125 -109v-2c43 -10 85 -40 85 -86c0 -92 -106 -137 -185 -137c-44 0 -87 5 -129 19l16 75c31 -20 67 -24 103 -24c45 0 107 12 107 69c0 51 -84 51 -119 51z" />
    <glyph glyph-name="twosuperior" unicode="&#xb2;" horiz-adv-x="361" 
d="M29 282l14 62c50 41 256 184 256 252c0 38 -33 44 -63 44c-37 0 -74 -10 -106 -20l6 69c40 14 74 21 116 21c68 0 135 -28 135 -102c0 -104 -164 -203 -223 -253v-3h169l-14 -70h-290z" />
    <glyph glyph-name="registered" unicode="&#xae;" horiz-adv-x="800" 
d="M420 -12c-199 0 -361 162 -361 361s162 361 361 361s361 -162 361 -361s-162 -361 -361 -361zM420 58c151 0 273 122 273 291s-122 291 -273 291s-273 -122 -273 -291s122 -291 273 -291zM281 146v409h152c98 0 151 -34 151 -120c0 -70 -40 -104 -107 -110l110 -179h-78
l-106 176h-46v-176h-76zM357 497v-117h67c45 0 84 6 84 61c0 48 -44 56 -83 56h-68z" />
    <glyph glyph-name="minus" unicode="&#x2212;" horiz-adv-x="600" 
d="M62 209v88h506v-88h-506z" />
    <glyph glyph-name="eth" unicode="&#xf0;" horiz-adv-x="611" 
d="M147 208c0 -81 42 -144 131 -144c106 0 186 120 186 235c0 76 -45 147 -130 147c-125 0 -187 -132 -187 -238zM172 608l115 54c-25 18 -50 33 -75 47l72 53c31 -18 61 -38 90 -60l130 60l43 -51l-121 -56c80 -80 138 -192 138 -356c0 -173 -102 -311 -285 -311
c-140 0 -232 76 -232 227c0 170 104 307 291 307c37 0 66 -8 90 -22h2c-23 44 -53 83 -88 116l-127 -59z" />
    <glyph glyph-name="multiply" unicode="&#xd7;" horiz-adv-x="600" 
d="M253 253l-170 170l62 62l170 -171l170 171l62 -62l-171 -170l171 -170l-62 -62l-170 171l-170 -171l-62 62z" />
    <glyph glyph-name="threesuperior" unicode="&#xb3;" horiz-adv-x="361" 
d="M147 466l9 70c42 0 150 -1 150 64c0 31 -39 40 -63 40c-37 0 -74 -8 -108 -21l6 76c33 7 66 15 100 15c66 0 153 -16 153 -100c0 -63 -70 -102 -125 -109v-2c43 -10 85 -40 85 -86c0 -92 -106 -137 -185 -137c-44 0 -87 5 -129 19l16 75c31 -20 67 -24 103 -24
c45 0 107 12 107 69c0 51 -84 51 -119 51z" />
    <glyph glyph-name="copyright" unicode="&#xa9;" horiz-adv-x="800" 
d="M529 285h73c-16 -99 -88 -156 -173 -156c-125 0 -205 95 -205 220s75 218 202 218c88 0 163 -53 176 -150h-73c-10 49 -50 80 -102 80c-84 0 -127 -63 -127 -146c0 -87 48 -152 129 -152c54 0 93 32 100 86zM59 349c0 199 162 361 361 361s361 -162 361 -361
s-162 -361 -361 -361s-361 162 -361 361zM147 349c0 -169 122 -291 273 -291s273 122 273 291s-122 291 -273 291s-273 -122 -273 -291z" />
    <glyph glyph-name="Aacute" unicode="&#xc1;" horiz-adv-x="722" 
d="M520 258l-66 332l-211 -332h277zM-31 0l453 698h99l154 -698h-103l-37 176h-343l-112 -176h-111zM441 742l94 144h112l-135 -144h-71z" />
    <glyph glyph-name="Acircumflex" unicode="&#xc2;" horiz-adv-x="722" 
d="M520 258l-66 332l-211 -332h277zM-31 0l453 698h99l154 -698h-103l-37 176h-343l-112 -176h-111zM335 742l133 144h86l75 -144h-74l-51 98l-87 -98h-82z" />
    <glyph glyph-name="Adieresis" unicode="&#xc4;" horiz-adv-x="722" 
d="M520 258l-66 332l-211 -332h277zM-31 0l453 698h99l154 -698h-103l-37 176h-343l-112 -176h-111zM614 749h-88l21 100h88zM449 749h-88l21 100h88z" />
    <glyph glyph-name="Agrave" unicode="&#xc0;" horiz-adv-x="722" 
d="M520 258l-66 332l-211 -332h277zM-31 0l453 698h99l154 -698h-103l-37 176h-343l-112 -176h-111zM446 886l67 -144h-67l-101 144h101z" />
    <glyph glyph-name="Aring" unicode="&#xc5;" horiz-adv-x="722" 
d="M520 258l-66 332l-211 -332h277zM-31 0l453 698h99l154 -698h-103l-37 176h-343l-112 -176h-111zM579 828c0 -56 -45 -102 -101 -102s-100 46 -100 102c0 57 44 102 100 102s101 -45 101 -102zM539 828c0 33 -29 62 -61 62s-60 -27 -60 -62c0 -34 28 -62 60 -62
s61 30 61 62z" />
    <glyph glyph-name="Atilde" unicode="&#xc3;" horiz-adv-x="722" 
d="M520 258l-66 332l-211 -332h277zM-31 0l453 698h99l154 -698h-103l-37 176h-343l-112 -176h-111zM374 747h-46c6 43 26 112 94 112c52 0 112 -47 154 -46c30 -2 43 23 46 46h46c-6 -43 -26 -112 -94 -112c-52 0 -112 47 -154 46c-30 2 -43 -23 -46 -46z" />
    <glyph glyph-name="Ccedilla" unicode="&#xc7;" horiz-adv-x="611" 
d="M659 678l-29 -86c-42 18 -88 30 -135 30c-212 0 -315 -156 -315 -320c0 -153 102 -226 238 -226c42 0 86 8 125 24l-13 -93c-41 -13 -85 -19 -128 -19c-19 0 -37 1 -55 4l-46 -53l2 -2c7 2 18 4 27 4c44 0 92 -21 92 -76c0 -61 -69 -87 -121 -87c-34 0 -66 7 -97 22
l16 36c21 -7 43 -18 65 -18c34 0 61 9 61 45c0 24 -21 38 -46 38c-14 0 -29 -4 -42 -10l-17 24l70 83c-140 28 -237 126 -237 309c0 171 118 403 419 403c56 0 114 -11 166 -32z" />
    <glyph glyph-name="Eacute" unicode="&#xc9;" 
d="M42 0l153 698h379l-20 -88h-276l-45 -204h259l-17 -88h-262l-51 -230h293l-19 -88h-394zM333 747l94 144h112l-135 -144h-71z" />
    <glyph glyph-name="Ecircumflex" unicode="&#xca;" 
d="M42 0l153 698h379l-20 -88h-276l-45 -204h259l-17 -88h-262l-51 -230h293l-19 -88h-394zM227 747l133 144h86l75 -144h-74l-51 98l-87 -98h-82z" />
    <glyph glyph-name="Edieresis" unicode="&#xcb;" 
d="M42 0l153 698h379l-20 -88h-276l-45 -204h259l-17 -88h-262l-51 -230h293l-19 -88h-394zM506 754h-88l21 100h88zM341 754h-88l21 100h88z" />
    <glyph glyph-name="Egrave" unicode="&#xc8;" 
d="M42 0l153 698h379l-20 -88h-276l-45 -204h259l-17 -88h-262l-51 -230h293l-19 -88h-394zM374 891l67 -144h-67l-101 144h101z" />
    <glyph glyph-name="Iacute" unicode="&#xcd;" horiz-adv-x="278" 
d="M38 0l150 698h101l-150 -698h-101zM194 747l94 144h112l-135 -144h-71z" />
    <glyph glyph-name="Icircumflex" unicode="&#xce;" horiz-adv-x="278" 
d="M38 0l150 698h101l-150 -698h-101zM88 747l133 144h86l75 -144h-74l-51 98l-87 -98h-82z" />
    <glyph glyph-name="Idieresis" unicode="&#xcf;" horiz-adv-x="278" 
d="M38 0l150 698h101l-150 -698h-101zM367 754h-88l21 100h88zM202 754h-88l21 100h88z" />
    <glyph glyph-name="Igrave" unicode="&#xcc;" horiz-adv-x="278" 
d="M38 0l150 698h101l-150 -698h-101zM235 891l67 -144h-67l-101 144h101z" />
    <glyph glyph-name="Ntilde" unicode="&#xd1;" horiz-adv-x="722" 
d="M42 0l145 698h132l197 -585h2l124 585h95l-152 -698h-129l-197 580h-2l-119 -580h-96zM346 747h-46c6 43 26 112 94 112c52 0 112 -47 154 -46c30 -2 43 23 46 46h46c-6 -43 -26 -112 -94 -112c-52 0 -112 47 -154 46c-30 2 -43 -23 -46 -46z" />
    <glyph glyph-name="Oacute" unicode="&#xd3;" horiz-adv-x="778" 
d="M74 284c0 198 138 426 394 426c178 0 283 -105 283 -283c0 -221 -131 -439 -384 -439c-192 0 -293 103 -293 296zM180 281c0 -124 65 -205 191 -205c172 0 274 185 274 337c0 134 -60 209 -180 209c-171 0 -285 -163 -285 -341zM449 751l94 144h112l-135 -144h-71z" />
    <glyph glyph-name="Ocircumflex" unicode="&#xd4;" horiz-adv-x="778" 
d="M74 284c0 198 138 426 394 426c178 0 283 -105 283 -283c0 -221 -131 -439 -384 -439c-192 0 -293 103 -293 296zM180 281c0 -124 65 -205 191 -205c172 0 274 185 274 337c0 134 -60 209 -180 209c-171 0 -285 -163 -285 -341zM343 751l133 144h86l75 -144h-74l-51 98
l-87 -98h-82z" />
    <glyph glyph-name="Odieresis" unicode="&#xd6;" horiz-adv-x="778" 
d="M74 284c0 198 138 426 394 426c178 0 283 -105 283 -283c0 -221 -131 -439 -384 -439c-192 0 -293 103 -293 296zM180 281c0 -124 65 -205 191 -205c172 0 274 185 274 337c0 134 -60 209 -180 209c-171 0 -285 -163 -285 -341zM622 758h-88l21 100h88zM457 758h-88
l21 100h88z" />
    <glyph glyph-name="Ograve" unicode="&#xd2;" horiz-adv-x="778" 
d="M74 284c0 198 138 426 394 426c178 0 283 -105 283 -283c0 -221 -131 -439 -384 -439c-192 0 -293 103 -293 296zM180 281c0 -124 65 -205 191 -205c172 0 274 185 274 337c0 134 -60 209 -180 209c-171 0 -285 -163 -285 -341zM490 895l67 -144h-67l-101 144h101z" />
    <glyph glyph-name="Otilde" unicode="&#xd5;" horiz-adv-x="778" 
d="M74 284c0 198 138 426 394 426c178 0 283 -105 283 -283c0 -221 -131 -439 -384 -439c-192 0 -293 103 -293 296zM180 281c0 -124 65 -205 191 -205c172 0 274 185 274 337c0 134 -60 209 -180 209c-171 0 -285 -163 -285 -341zM382 756h-46c6 43 26 112 94 112
c52 0 112 -47 154 -46c30 -2 43 23 46 46h46c-6 -43 -26 -112 -94 -112c-52 0 -112 47 -154 46c-30 2 -43 -23 -46 -46z" />
    <glyph glyph-name="Scaron" unicode="&#x160;" horiz-adv-x="500" 
d="M508 677l-28 -89c-33 20 -74 34 -127 34c-66 0 -138 -26 -138 -109c0 -117 238 -118 238 -301c0 -105 -73 -224 -241 -224c-81 0 -139 18 -195 40l32 92c41 -26 98 -44 147 -44c106 0 151 66 151 124c0 142 -238 117 -238 311c0 127 116 199 231 199
c58 0 115 -11 168 -33zM502 913l-133 -144h-86l-75 144h74l51 -98l87 98h82z" />
    <glyph glyph-name="Uacute" unicode="&#xda;" horiz-adv-x="722" 
d="M736 698l-90 -410c-47 -212 -146 -300 -306 -300c-194 0 -246 136 -246 211c0 48 15 112 24 156l74 343h100l-90 -421c-5 -25 -8 -47 -8 -62c0 -91 65 -139 152 -139c148 0 188 151 213 268l77 354h100zM421 742l94 144h112l-135 -144h-71z" />
    <glyph glyph-name="Ucircumflex" unicode="&#xdb;" horiz-adv-x="722" 
d="M736 698l-90 -410c-47 -212 -146 -300 -306 -300c-194 0 -246 136 -246 211c0 48 15 112 24 156l74 343h100l-90 -421c-5 -25 -8 -47 -8 -62c0 -91 65 -139 152 -139c148 0 188 151 213 268l77 354h100zM315 742l133 144h86l75 -144h-74l-51 98l-87 -98h-82z" />
    <glyph glyph-name="Udieresis" unicode="&#xdc;" horiz-adv-x="722" 
d="M736 698l-90 -410c-47 -212 -146 -300 -306 -300c-194 0 -246 136 -246 211c0 48 15 112 24 156l74 343h100l-90 -421c-5 -25 -8 -47 -8 -62c0 -91 65 -139 152 -139c148 0 188 151 213 268l77 354h100zM594 749h-88l21 100h88zM429 749h-88l21 100h88z" />
    <glyph glyph-name="Ugrave" unicode="&#xd9;" horiz-adv-x="722" 
d="M736 698l-90 -410c-47 -212 -146 -300 -306 -300c-194 0 -246 136 -246 211c0 48 15 112 24 156l74 343h100l-90 -421c-5 -25 -8 -47 -8 -62c0 -91 65 -139 152 -139c148 0 188 151 213 268l77 354h100zM462 886l67 -144h-67l-101 144h101z" />
    <glyph glyph-name="Yacute" unicode="&#xdd;" horiz-adv-x="667" 
d="M233 0l60 292l-187 406h110l139 -316l275 316h127l-366 -406l-60 -292h-98zM359 769l94 144h112l-135 -144h-71z" />
    <glyph glyph-name="Ydieresis" unicode="&#x178;" horiz-adv-x="667" 
d="M233 0l60 292l-187 406h110l139 -316l275 316h127l-366 -406l-60 -292h-98zM567 749h-88l21 100h88zM402 749h-88l21 100h88z" />
    <glyph glyph-name="Zcaron" unicode="&#x17d;" 
d="M-13 0l16 88l460 522h-343l18 88h465l-16 -89l-460 -521h361l-17 -88h-484zM530 913l-133 -144h-86l-75 144h74l51 -98l87 98h82z" />
    <glyph glyph-name="aacute" unicode="&#xe1;" 
d="M128 403l17 93c45 15 105 26 142 26c103 0 202 -40 202 -162c0 -23 -4 -56 -9 -80c-19 -95 -40 -190 -53 -280h-87l17 85h-2c-32 -61 -98 -97 -166 -97c-86 0 -163 45 -163 141c0 145 131 186 302 186c20 0 45 -2 68 -3c2 10 5 21 5 33c0 73 -48 101 -117 101
c-55 0 -114 -18 -156 -43zM376 245h-72c-71 0 -178 -19 -178 -112c0 -45 39 -69 84 -69c95 0 155 95 166 181zM303 581l94 144h112l-135 -144h-71z" />
    <glyph glyph-name="acircumflex" unicode="&#xe2;" 
d="M128 403l17 93c45 15 105 26 142 26c103 0 202 -40 202 -162c0 -23 -4 -56 -9 -80c-19 -95 -40 -190 -53 -280h-87l17 85h-2c-32 -61 -98 -97 -166 -97c-86 0 -163 45 -163 141c0 145 131 186 302 186c20 0 45 -2 68 -3c2 10 5 21 5 33c0 73 -48 101 -117 101
c-55 0 -114 -18 -156 -43zM376 245h-72c-71 0 -178 -19 -178 -112c0 -45 39 -69 84 -69c95 0 155 95 166 181zM197 581l133 144h86l75 -144h-74l-51 98l-87 -98h-82z" />
    <glyph glyph-name="adieresis" unicode="&#xe4;" 
d="M128 403l17 93c45 15 105 26 142 26c103 0 202 -40 202 -162c0 -23 -4 -56 -9 -80c-19 -95 -40 -190 -53 -280h-87l17 85h-2c-32 -61 -98 -97 -166 -97c-86 0 -163 45 -163 141c0 145 131 186 302 186c20 0 45 -2 68 -3c2 10 5 21 5 33c0 73 -48 101 -117 101
c-55 0 -114 -18 -156 -43zM376 245h-72c-71 0 -178 -19 -178 -112c0 -45 39 -69 84 -69c95 0 155 95 166 181zM476 588h-88l21 100h88zM311 588h-88l21 100h88z" />
    <glyph glyph-name="agrave" unicode="&#xe0;" 
d="M128 403l17 93c45 15 105 26 142 26c103 0 202 -40 202 -162c0 -23 -4 -56 -9 -80c-19 -95 -40 -190 -53 -280h-87l17 85h-2c-32 -61 -98 -97 -166 -97c-86 0 -163 45 -163 141c0 145 131 186 302 186c20 0 45 -2 68 -3c2 10 5 21 5 33c0 73 -48 101 -117 101
c-55 0 -114 -18 -156 -43zM376 245h-72c-71 0 -178 -19 -178 -112c0 -45 39 -69 84 -69c95 0 155 95 166 181zM344 725l67 -144h-67l-101 144h101z" />
    <glyph glyph-name="aring" unicode="&#xe5;" 
d="M128 403l17 93c45 15 105 26 142 26c103 0 202 -40 202 -162c0 -23 -4 -56 -9 -80c-19 -95 -40 -190 -53 -280h-87l17 85h-2c-32 -61 -98 -97 -166 -97c-86 0 -163 45 -163 141c0 145 131 186 302 186c20 0 45 -2 68 -3c2 10 5 21 5 33c0 73 -48 101 -117 101
c-55 0 -114 -18 -156 -43zM376 245h-72c-71 0 -178 -19 -178 -112c0 -45 39 -69 84 -69c95 0 155 95 166 181zM446 640c0 -56 -45 -102 -101 -102s-100 46 -100 102c0 57 44 102 100 102s101 -45 101 -102zM406 640c0 33 -29 62 -61 62s-60 -27 -60 -62c0 -34 28 -62 60 -62
s61 30 61 62z" />
    <glyph glyph-name="atilde" unicode="&#xe3;" 
d="M128 403l17 93c45 15 105 26 142 26c103 0 202 -40 202 -162c0 -23 -4 -56 -9 -80c-19 -95 -40 -190 -53 -280h-87l17 85h-2c-32 -61 -98 -97 -166 -97c-86 0 -163 45 -163 141c0 145 131 186 302 186c20 0 45 -2 68 -3c2 10 5 21 5 33c0 73 -48 101 -117 101
c-55 0 -114 -18 -156 -43zM376 245h-72c-71 0 -178 -19 -178 -112c0 -45 39 -69 84 -69c95 0 155 95 166 181zM236 586h-46c6 43 26 112 94 112c52 0 112 -47 154 -46c30 -2 43 23 46 46h46c-6 -43 -26 -112 -94 -112c-52 0 -112 47 -154 46c-30 2 -43 -23 -46 -46z" />
    <glyph glyph-name="ccedilla" unicode="&#xe7;" horiz-adv-x="444" 
d="M457 502l-23 -81c-33 18 -65 25 -91 25c-121 0 -196 -107 -196 -231c0 -95 48 -151 138 -151c32 0 73 11 103 23l-17 -87c-31 -9 -65 -12 -98 -12c-4 0 -9 0 -12 1l-44 -50l2 -2c7 2 18 4 27 4c44 0 92 -21 92 -76c0 -61 -69 -87 -121 -87c-34 0 -66 7 -97 22l16 36
c21 -7 43 -18 65 -18c34 0 61 9 61 45c0 24 -21 38 -46 38c-14 0 -29 -4 -42 -10l-17 24l65 77c-106 16 -175 86 -175 209c0 173 101 321 278 321c54 0 94 -7 132 -20z" />
    <glyph glyph-name="eacute" unicode="&#xe9;" 
d="M160 304h261c2 15 3 27 3 39c0 60 -37 103 -108 103c-77 0 -136 -67 -156 -142zM448 95l-15 -86c-49 -12 -100 -21 -151 -21c-124 0 -235 50 -235 230c0 141 99 304 279 304c123 0 192 -74 192 -195c0 -34 -4 -63 -9 -93h-359c-2 -11 -3 -21 -3 -32
c0 -107 66 -138 157 -138c47 0 98 12 144 31zM303 581l94 144h112l-135 -144h-71z" />
    <glyph glyph-name="ecircumflex" unicode="&#xea;" 
d="M160 304h261c2 15 3 27 3 39c0 60 -37 103 -108 103c-77 0 -136 -67 -156 -142zM448 95l-15 -86c-49 -12 -100 -21 -151 -21c-124 0 -235 50 -235 230c0 141 99 304 279 304c123 0 192 -74 192 -195c0 -34 -4 -63 -9 -93h-359c-2 -11 -3 -21 -3 -32
c0 -107 66 -138 157 -138c47 0 98 12 144 31zM197 581l133 144h86l75 -144h-74l-51 98l-87 -98h-82z" />
    <glyph glyph-name="edieresis" unicode="&#xeb;" 
d="M160 304h261c2 15 3 27 3 39c0 60 -37 103 -108 103c-77 0 -136 -67 -156 -142zM448 95l-15 -86c-49 -12 -100 -21 -151 -21c-124 0 -235 50 -235 230c0 141 99 304 279 304c123 0 192 -74 192 -195c0 -34 -4 -63 -9 -93h-359c-2 -11 -3 -21 -3 -32
c0 -107 66 -138 157 -138c47 0 98 12 144 31zM476 588h-88l21 100h88zM311 588h-88l21 100h88z" />
    <glyph glyph-name="egrave" unicode="&#xe8;" 
d="M160 304h261c2 15 3 27 3 39c0 60 -37 103 -108 103c-77 0 -136 -67 -156 -142zM448 95l-15 -86c-49 -12 -100 -21 -151 -21c-124 0 -235 50 -235 230c0 141 99 304 279 304c123 0 192 -74 192 -195c0 -34 -4 -63 -9 -93h-359c-2 -11 -3 -21 -3 -32
c0 -107 66 -138 157 -138c47 0 98 12 144 31zM344 725l67 -144h-67l-101 144h101z" />
    <glyph glyph-name="iacute" unicode="&#xed;" horiz-adv-x="278" 
d="M41 0l108 510h94l-108 -510h-94zM164 581l94 144h112l-135 -144h-71z" />
    <glyph glyph-name="icircumflex" unicode="&#xee;" horiz-adv-x="278" 
d="M41 0l108 510h94l-108 -510h-94zM58 581l133 144h86l75 -144h-74l-51 98l-87 -98h-82z" />
    <glyph glyph-name="idieresis" unicode="&#xef;" horiz-adv-x="278" 
d="M41 0l108 510h94l-108 -510h-94zM337 588h-88l21 100h88zM172 588h-88l21 100h88z" />
    <glyph glyph-name="igrave" unicode="&#xec;" horiz-adv-x="278" 
d="M41 0l108 510h94l-108 -510h-94zM205 725l67 -144h-67l-101 144h101z" />
    <glyph glyph-name="ntilde" unicode="&#xf1;" horiz-adv-x="611" 
d="M35 0l89 432c4 21 10 48 14 78h88l-16 -81h2c30 48 85 93 174 93c99 0 170 -52 170 -160c0 -30 -6 -64 -12 -93l-56 -269h-94l63 305c3 17 5 37 5 48c0 53 -35 93 -93 93c-116 0 -173 -126 -186 -189l-54 -257h-94zM264 586h-46c6 43 26 112 94 112c52 0 112 -47 154 -46
c30 -2 43 23 46 46h46c-6 -43 -26 -112 -94 -112c-52 0 -112 47 -154 46c-30 2 -43 -23 -46 -46z" />
    <glyph glyph-name="oacute" unicode="&#xf3;" horiz-adv-x="611" 
d="M47 215c0 170 104 307 291 307c137 0 226 -83 226 -223c0 -173 -102 -311 -285 -311c-140 0 -232 76 -232 227zM147 208c0 -81 42 -144 131 -144c106 0 186 120 186 235c0 76 -45 147 -130 147c-125 0 -187 -132 -187 -238zM331 581l94 144h112l-135 -144h-71z" />
    <glyph glyph-name="ocircumflex" unicode="&#xf4;" horiz-adv-x="611" 
d="M47 215c0 170 104 307 291 307c137 0 226 -83 226 -223c0 -173 -102 -311 -285 -311c-140 0 -232 76 -232 227zM147 208c0 -81 42 -144 131 -144c106 0 186 120 186 235c0 76 -45 147 -130 147c-125 0 -187 -132 -187 -238zM225 581l133 144h86l75 -144h-74l-51 98
l-87 -98h-82z" />
    <glyph glyph-name="odieresis" unicode="&#xf6;" horiz-adv-x="611" 
d="M47 215c0 170 104 307 291 307c137 0 226 -83 226 -223c0 -173 -102 -311 -285 -311c-140 0 -232 76 -232 227zM147 208c0 -81 42 -144 131 -144c106 0 186 120 186 235c0 76 -45 147 -130 147c-125 0 -187 -132 -187 -238zM504 588h-88l21 100h88zM339 588h-88l21 100
h88z" />
    <glyph glyph-name="ograve" unicode="&#xf2;" horiz-adv-x="611" 
d="M47 215c0 170 104 307 291 307c137 0 226 -83 226 -223c0 -173 -102 -311 -285 -311c-140 0 -232 76 -232 227zM147 208c0 -81 42 -144 131 -144c106 0 186 120 186 235c0 76 -45 147 -130 147c-125 0 -187 -132 -187 -238zM372 725l67 -144h-67l-101 144h101z" />
    <glyph glyph-name="otilde" unicode="&#xf5;" horiz-adv-x="611" 
d="M47 215c0 170 104 307 291 307c137 0 226 -83 226 -223c0 -173 -102 -311 -285 -311c-140 0 -232 76 -232 227zM147 208c0 -81 42 -144 131 -144c106 0 186 120 186 235c0 76 -45 147 -130 147c-125 0 -187 -132 -187 -238zM264 586h-46c6 43 26 112 94 112
c52 0 112 -47 154 -46c30 -2 43 23 46 46h46c-6 -43 -26 -112 -94 -112c-52 0 -112 47 -154 46c-30 2 -43 -23 -46 -46z" />
    <glyph glyph-name="scaron" unicode="&#x161;" horiz-adv-x="389" 
d="M389 494l-28 -74c-26 13 -67 26 -102 26c-41 0 -95 -11 -95 -62c0 -87 174 -91 174 -233c0 -123 -113 -163 -193 -163c-81 0 -111 11 -149 24l18 81c37 -15 76 -29 117 -29c51 0 107 21 107 79c0 87 -174 100 -174 229c0 108 108 150 192 150c45 0 91 -11 133 -28z
M447 725l-133 -144h-86l-75 144h74l51 -98l87 98h82z" />
    <glyph glyph-name="uacute" unicode="&#xfa;" horiz-adv-x="611" 
d="M584 510l-89 -432c-4 -21 -10 -48 -14 -78h-88l16 81h-2c-30 -48 -85 -93 -174 -93c-99 0 -170 52 -170 160c0 30 6 64 12 93l56 269h94l-63 -305c-3 -17 -5 -37 -5 -48c0 -53 35 -93 93 -93c116 0 173 126 186 189l54 257h94zM331 581l94 144h112l-135 -144h-71z" />
    <glyph glyph-name="ucircumflex" unicode="&#xfb;" horiz-adv-x="611" 
d="M584 510l-89 -432c-4 -21 -10 -48 -14 -78h-88l16 81h-2c-30 -48 -85 -93 -174 -93c-99 0 -170 52 -170 160c0 30 6 64 12 93l56 269h94l-63 -305c-3 -17 -5 -37 -5 -48c0 -53 35 -93 93 -93c116 0 173 126 186 189l54 257h94zM225 581l133 144h86l75 -144h-74l-51 98
l-87 -98h-82z" />
    <glyph glyph-name="udieresis" unicode="&#xfc;" horiz-adv-x="611" 
d="M584 510l-89 -432c-4 -21 -10 -48 -14 -78h-88l16 81h-2c-30 -48 -85 -93 -174 -93c-99 0 -170 52 -170 160c0 30 6 64 12 93l56 269h94l-63 -305c-3 -17 -5 -37 -5 -48c0 -53 35 -93 93 -93c116 0 173 126 186 189l54 257h94zM504 588h-88l21 100h88zM339 588h-88
l21 100h88z" />
    <glyph glyph-name="ugrave" unicode="&#xf9;" horiz-adv-x="611" 
d="M584 510l-89 -432c-4 -21 -10 -48 -14 -78h-88l16 81h-2c-30 -48 -85 -93 -174 -93c-99 0 -170 52 -170 160c0 30 6 64 12 93l56 269h94l-63 -305c-3 -17 -5 -37 -5 -48c0 -53 35 -93 93 -93c116 0 173 126 186 189l54 257h94zM372 725l67 -144h-67l-101 144h101z" />
    <glyph glyph-name="yacute" unicode="&#xfd;" horiz-adv-x="500" 
d="M-38 -215l16 78c7 -4 24 -9 41 -9c57 1 96 39 135 118l-82 538h98l59 -407h2l222 407h101l-348 -606c-45 -78 -79 -126 -173 -126c-23 0 -47 2 -71 7zM275 581l94 144h112l-135 -144h-71z" />
    <glyph glyph-name="ydieresis" unicode="&#xff;" horiz-adv-x="500" 
d="M-38 -215l16 78c7 -4 24 -9 41 -9c57 1 96 39 135 118l-82 538h98l59 -407h2l222 407h101l-348 -606c-45 -78 -79 -126 -173 -126c-23 0 -47 2 -71 7zM448 588h-88l21 100h88zM283 588h-88l21 100h88z" />
    <glyph glyph-name="zcaron" unicode="&#x17e;" horiz-adv-x="500" 
d="M-6 0l16 82l363 352h-283l15 76h404l-19 -82l-366 -352h302l-17 -76h-415zM502 725l-133 -144h-86l-75 144h74l51 -98l87 98h82z" />
    <glyph glyph-name="Omega" unicode="&#x2126;" horiz-adv-x="716" 
d="M154 73l1 3c-56 61 -97 165 -68 301c41 190 198 330 371 330c184 0 260 -159 225 -325c-30 -140 -119 -249 -198 -306l-1 -3h147l-15 -73h-247l12 54c82 47 174 151 208 311c27 128 -13 267 -148 267c-127 0 -234 -119 -267 -271c-31 -147 14 -262 77 -307l-11 -54h-246
l15 73h145z" />
    <glyph glyph-name="uni03BC" unicode="&#x3bc;" horiz-adv-x="611" 
d="M594 510l-89 -432c-4 -21 -10 -48 -14 -78h-88l16 81h-2c-30 -48 -85 -93 -174 -93c-57 -2 -86 6 -111 23l-45 -221h-94l148 720h94l-63 -305c-3 -17 -5 -37 -5 -48c0 -53 35 -93 93 -93c116 0 173 126 186 189l54 257h94z" />
    <glyph glyph-name="pi" unicode="&#x3c0;" horiz-adv-x="578" 
d="M594 443h-78l-63 -296c-17 -80 -18 -119 -17 -147h-86c-7 18 -4 62 13 141l64 302h-169c-32 -123 -108 -346 -165 -443h-87c60 110 133 316 163 443c-58 0 -87 -5 -110 -12l1 59c28 17 75 29 155 29h403z" />
    <glyph glyph-name="Euro" unicode="&#x20ac;" 
d="M667 684l-37 -83c-31 18 -84 27 -119 27c-120 0 -214 -78 -265 -183h318l-24 -54h-317c-9 -27 -15 -55 -18 -84h299l-23 -54h-275c6 -111 73 -181 186 -181c43 0 91 8 130 25l-12 -87c-44 -16 -97 -22 -144 -22c-166 0 -272 96 -271 265h-95l24 54h75c4 28 10 57 18 84
h-88l24 54h83c67 155 212 265 384 265c49 0 102 -7 147 -26z" />
    <glyph glyph-name="afii61289" unicode="&#x2113;" horiz-adv-x="492" 
d="M411 159l33 -37c-66 -89 -142 -130 -220 -130c-116 0 -146 84 -131 179c0 4 1 8 2 12c-20 -14 -43 -30 -65 -45l-15 50c34 24 65 45 95 69l56 266c39 181 131 244 213 244c87 0 112 -74 93 -166c-27 -124 -132 -241 -280 -360l-8 -36c-20 -99 19 -141 74 -141
c60 0 118 50 153 95zM253 528l-43 -202c100 90 183 185 202 275c13 60 3 100 -46 100c-35 0 -85 -41 -113 -173z" />
    <glyph glyph-name="estimated" unicode="&#x212e;" horiz-adv-x="968" 
d="M934 339h-649c-3 0 -6 -1 -6 -4v-197c0 -8 4 -16 9 -22c63 -65 150 -107 246 -107c103 0 195 47 258 119h58c-72 -84 -188 -139 -317 -139c-221 0 -401 161 -401 360s180 361 401 361c222 0 401 -162 401 -361v-10zM787 365v197c0 9 -3 17 -10 24
c-63 62 -148 102 -243 102s-182 -42 -245 -106c-6 -6 -10 -15 -10 -24v-193c0 -3 3 -7 6 -7h498c3 0 4 4 4 7z" />
    <glyph glyph-name="partialdiff" unicode="&#x2202;" horiz-adv-x="553" 
d="M190 660l-15 66c38 25 98 56 183 56c134 0 233 -123 179 -377c-51 -237 -181 -413 -354 -413c-133 0 -171 121 -147 232c33 157 154 256 268 256c89 0 131 -63 140 -91h1c3 10 8 30 10 41c34 161 -21 278 -123 278c-61 0 -110 -26 -142 -48zM207 66h1
c89 0 172 119 210 240c-5 40 -41 102 -114 102c-78 0 -158 -84 -180 -185c-19 -89 12 -157 83 -157z" />
    <glyph glyph-name="product" unicode="&#x220f;" horiz-adv-x="799" 
d="M773 615h-107v-711h-88v711h-263v-711h-87v711h-107v80h652v-80z" />
    <glyph glyph-name="summation" unicode="&#x2211;" horiz-adv-x="647" 
d="M627 -96h-509v58l261 337l-250 334v62h482v-76h-360v-3l229 -303l-249 -322v-3h396v-84z" />
    <glyph glyph-name="uni2219" unicode="&#x2219;" horiz-adv-x="278" 
d="M96 303c0 33 26 59 59 59s59 -26 59 -59s-26 -59 -59 -59s-59 26 -59 59z" />
    <glyph glyph-name="radical" unicode="&#x221a;" horiz-adv-x="673" 
d="M677 829l-222 -975h-76l-156 455l-75 -29l-16 53l145 57l121 -356c6 -27 14 -56 18 -76h1c3 19 9 49 14 77l182 794h64z" />
    <glyph glyph-name="infinity" unicode="&#x221e;" horiz-adv-x="816" 
d="M767 289v-1c0 -100 -75 -162 -154 -162c-62 0 -113 35 -182 117c-53 -62 -107 -117 -188 -117s-151 67 -151 158c0 94 68 161 159 161c75 0 131 -53 183 -116c49 54 100 117 185 116c87 0 148 -63 148 -156zM251 179h1c61 0 109 59 149 103c-43 54 -86 112 -156 112
c-61 0 -97 -51 -97 -111c0 -57 42 -104 103 -104zM614 394h-2c-65 0 -116 -71 -150 -107c65 -74 101 -108 154 -108c61 0 96 55 96 105c0 68 -42 110 -98 110z" />
    <glyph glyph-name="integral" unicode="&#x222b;" horiz-adv-x="464" 
d="M447 840l-12 -62c-9 5 -23 10 -37 10c-17 0 -37 -7 -50 -24c-24 -29 -32 -84 -32 -175c0 -158 14 -328 14 -495c0 -103 -19 -164 -41 -200c-23 -40 -66 -58 -107 -58c-28 0 -56 9 -69 17l14 64c9 -4 25 -12 45 -12c16 0 34 7 46 22c19 25 32 69 32 167
c0 169 -14 342 -14 503c0 111 15 173 55 215c26 28 64 41 100 41c22 0 45 -7 56 -13z" />
    <glyph glyph-name="approxequal" unicode="&#x2248;" horiz-adv-x="598" 
d="M519 435l35 -31c-29 -54 -71 -97 -131 -97c-40 0 -68 15 -115 42c-31 18 -58 33 -92 33c-46 0 -72 -35 -97 -73l-36 30c30 58 81 97 140 97c48 0 83 -25 110 -40c35 -19 58 -35 92 -35c41 0 66 27 94 74zM519 260l35 -30c-29 -54 -70 -97 -131 -97c-40 0 -68 15 -115 42
c-31 18 -58 34 -91 34c-47 0 -73 -37 -98 -75l-36 31c30 58 81 97 140 97c49 0 83 -25 110 -39c33 -18 57 -36 93 -36c40 0 65 27 93 73z" />
    <glyph glyph-name="notequal" unicode="&#x2260;" horiz-adv-x="617" 
d="M459 505l-43 -96h151v-55h-173l-65 -143h238v-55h-260l-53 -117l-44 20l45 97h-146v55h168l64 143h-232v55h254l52 115z" />
    <glyph glyph-name="lessequal" unicode="&#x2264;" horiz-adv-x="633" 
d="M581 96l-450 224v59l450 224v-65l-392 -186v-2l392 -188v-66zM584 0h-458v57h458v-57z" />
    <glyph glyph-name="greaterequal" unicode="&#x2265;" horiz-adv-x="633" 
d="M132 603l450 -224v-59l-449 -224v66l391 187v2l-392 187v65zM583 0h-456v57h456v-57z" />
    <glyph glyph-name="lozenge" unicode="&#x25ca;" horiz-adv-x="673" 
d="M621 347l-200 -393h-72l-197 393l200 395h72zM541 345l-135 268c-7 17 -15 40 -18 54h-3c-5 -16 -11 -35 -19 -54l-135 -264l136 -270c8 -20 15 -40 18 -53h3c4 14 12 39 18 52z" />
    <glyph glyph-name="uni00A0" unicode="&#xa0;" horiz-adv-x="278" 
 />
    <glyph glyph-name="uni00AD" unicode="&#xad;" horiz-adv-x="333" 
d="M35 231l16 76h263l-15 -76h-264z" />
    <glyph glyph-name="uni02C9" unicode="&#x2c9;" horiz-adv-x="278" 
d="M81 615l12 58h269l-11 -58h-270z" />
    <glyph glyph-name="uni03A9" unicode="&#x3a9;" horiz-adv-x="716" 
d="M154 73l1 3c-56 61 -97 165 -68 301c41 190 198 330 371 330c184 0 260 -159 225 -325c-30 -140 -119 -249 -198 -306l-1 -3h147l-15 -73h-247l12 54c82 47 174 151 208 311c27 128 -13 267 -148 267c-127 0 -234 -119 -267 -271c-31 -147 14 -262 77 -307l-11 -54h-246
l15 73h145z" />
    <glyph glyph-name="uni2215" unicode="&#x2215;" horiz-adv-x="167" 
d="M-169 -22l435 742h70l-435 -742h-70z" />
    <glyph glyph-name="a.superior" horiz-adv-x="361" 
d="M136 621l11 74c42 8 85 15 128 15c62 0 137 -22 137 -97c0 -14 -3 -39 -7 -60c-10 -47 -24 -104 -33 -157h-80l11 50h-2c-21 -39 -65 -58 -108 -58c-56 0 -129 18 -129 87c0 102 122 118 200 118h57c1 6 3 12 3 20c0 26 -36 33 -69 33c-29 0 -81 -11 -119 -25zM315 535
h-47c-38 0 -116 -7 -116 -52c0 -27 37 -31 55 -31c53 0 100 33 108 83z" />
    <glyph glyph-name="o.superior" horiz-adv-x="397" 
d="M242 388c-97 0 -156 46 -156 137c0 103 67 185 195 185c95 0 153 -50 153 -135c0 -104 -67 -187 -192 -187zM346 562c0 47 -22 84 -71 84c-65 0 -100 -49 -101 -119c0 -37 27 -75 72 -75c55 0 100 43 100 110z" />
    <glyph glyph-name="one.superior" horiz-adv-x="361" 
d="M145 282l77 346l-74 -45l-35 45l134 76h81l-98 -422h-85z" />
    <glyph glyph-name="two.superior" horiz-adv-x="361" 
d="M29 282l14 62c50 41 256 184 256 252c0 38 -33 44 -63 44c-37 0 -74 -10 -106 -20l6 69c40 14 74 21 116 21c68 0 135 -28 135 -102c0 -104 -164 -203 -223 -253v-3h169l-14 -70h-290z" />
    <glyph glyph-name="three.superior" horiz-adv-x="361" 
d="M147 466l9 70c42 0 150 -1 150 64c0 31 -39 40 -63 40c-37 0 -74 -8 -108 -21l6 76c33 7 66 15 100 15c66 0 153 -16 153 -100c0 -63 -70 -102 -125 -109v-2c43 -10 85 -40 85 -86c0 -92 -106 -137 -185 -137c-44 0 -87 5 -129 19l16 75c31 -20 67 -24 103 -24
c45 0 107 12 107 69c0 51 -84 51 -119 51z" />
    <glyph glyph-name="uni2206" unicode="&#x2206;" horiz-adv-x="649" 
d="M-22 0l12 57l383 656h105l101 -654l-13 -59h-588zM84 73h402l-59 356c-6 54 -22 139 -25 184h-3c-17 -37 -65 -114 -94 -168z" />
    <glyph glyph-name="uni2010" unicode="&#x2010;" horiz-adv-x="333" 
d="M35 231l16 76h263l-15 -76h-264z" />
    </font>
</defs>
</svg>
